<svg width="198" height="40" viewBox="0 0 198 40" fill="none" xmlns="http://www.w3.org/2000/svg">
<path d="M43.82 30V16.112H46.984L47.264 18.464C47.6933 17.6427 48.3093 16.9893 49.112 16.504C49.9333 16.0187 50.8947 15.776 51.996 15.776C53.7133 15.776 55.048 16.3173 56 17.4C56.952 18.4827 57.428 20.0693 57.428 22.16V30H53.844V22.496C53.844 21.3013 53.6013 20.3867 53.116 19.752C52.6307 19.1173 51.8747 18.8 50.848 18.8C49.84 18.8 49.0093 19.1547 48.356 19.864C47.7213 20.5733 47.404 21.5627 47.404 22.832V30H43.82ZM66.0632 30.336C64.3272 30.336 62.9832 29.7947 62.0312 28.712C61.0978 27.6293 60.6312 26.0427 60.6312 23.952V16.112H64.1872V23.616C64.1872 24.8107 64.4298 25.7253 64.9152 26.36C65.4005 26.9947 66.1658 27.312 67.2112 27.312C68.2005 27.312 69.0125 26.9573 69.6472 26.248C70.3005 25.5387 70.6272 24.5493 70.6272 23.28V16.112H74.2112V30H71.0472L70.7672 27.648C70.3378 28.4693 69.7125 29.1227 68.8912 29.608C68.0885 30.0933 67.1458 30.336 66.0632 30.336ZM76.5743 30L81.6143 23.056L76.5743 16.112H80.4103L83.9383 21.04L87.4383 16.112H91.3023L86.2343 23.056L91.3023 30H87.4383L83.9383 25.072L80.4103 30H76.5743ZM99.7736 30C98.3176 30 97.151 29.6453 96.2736 28.936C95.3963 28.2267 94.9576 26.9667 94.9576 25.156V19.108H92.5776V16.112H94.9576L95.3776 12.388H98.5416V16.112H102.294V19.108H98.5416V25.184C98.5416 25.856 98.6816 26.3227 98.9616 26.584C99.2603 26.8267 99.7643 26.948 100.474 26.948H102.21V30H99.7736ZM104.195 33.108L111.195 8.244H114.695L107.667 33.108H104.195Z" fill="#003C3C"/>
<path d="M119.088 13.956C118.435 13.956 117.893 13.76 117.464 13.368C117.053 12.976 116.848 12.4813 116.848 11.884C116.848 11.2867 117.053 10.8013 117.464 10.428C117.893 10.036 118.435 9.84 119.088 9.84C119.741 9.84 120.273 10.036 120.684 10.428C121.113 10.8013 121.328 11.2867 121.328 11.884C121.328 12.4813 121.113 12.976 120.684 13.368C120.273 13.76 119.741 13.956 119.088 13.956ZM117.296 30V16.112H120.88V30H117.296ZM124.621 30V16.112H127.785L128.093 17.988C128.541 17.316 129.129 16.784 129.857 16.392C130.603 15.9813 131.462 15.776 132.433 15.776C134.579 15.776 136.101 16.6067 136.997 18.268C137.501 17.5027 138.173 16.896 139.013 16.448C139.871 16 140.805 15.776 141.813 15.776C143.623 15.776 145.014 16.3173 145.985 17.4C146.955 18.4827 147.441 20.0693 147.441 22.16V30H143.857V22.496C143.857 21.3013 143.623 20.3867 143.157 19.752C142.709 19.1173 142.009 18.8 141.057 18.8C140.086 18.8 139.302 19.1547 138.705 19.864C138.126 20.5733 137.837 21.5627 137.837 22.832V30H134.253V22.496C134.253 21.3013 134.019 20.3867 133.553 19.752C133.086 19.1173 132.367 18.8 131.397 18.8C130.445 18.8 129.67 19.1547 129.073 19.864C128.494 20.5733 128.205 21.5627 128.205 22.832V30H124.621ZM155.631 30.336C154.437 30.336 153.457 30.1493 152.691 29.776C151.926 29.384 151.357 28.8707 150.983 28.236C150.61 27.6013 150.423 26.9013 150.423 26.136C150.423 24.848 150.927 23.8027 151.935 23C152.943 22.1973 154.455 21.796 156.471 21.796H159.999V21.46C159.999 20.508 159.729 19.808 159.187 19.36C158.646 18.912 157.974 18.688 157.171 18.688C156.443 18.688 155.809 18.8653 155.267 19.22C154.726 19.556 154.39 20.06 154.259 20.732H150.759C150.853 19.724 151.189 18.8467 151.767 18.1C152.365 17.3533 153.13 16.784 154.063 16.392C154.997 15.9813 156.042 15.776 157.199 15.776C159.178 15.776 160.737 16.2707 161.875 17.26C163.014 18.2493 163.583 19.6493 163.583 21.46V30H160.531L160.195 27.76C159.785 28.5067 159.206 29.1227 158.459 29.608C157.731 30.0933 156.789 30.336 155.631 30.336ZM156.443 27.536C157.47 27.536 158.263 27.2 158.823 26.528C159.402 25.856 159.766 25.0253 159.915 24.036H156.863C155.911 24.036 155.23 24.2133 154.819 24.568C154.409 24.904 154.203 25.324 154.203 25.828C154.203 26.3693 154.409 26.7893 154.819 27.088C155.23 27.3867 155.771 27.536 156.443 27.536ZM172.884 25.856C172.212 25.856 171.586 25.7813 171.008 25.632L169.972 26.668C170.289 26.836 170.718 26.976 171.26 27.088C171.801 27.2 172.678 27.312 173.892 27.424C175.74 27.592 177.084 28.0307 177.924 28.74C178.764 29.4493 179.184 30.4293 179.184 31.68C179.184 32.5013 178.96 33.276 178.512 34.004C178.064 34.7507 177.373 35.348 176.44 35.796C175.506 36.2627 174.312 36.496 172.856 36.496C170.877 36.496 169.281 36.1227 168.068 35.376C166.854 34.648 166.248 33.5467 166.248 32.072C166.248 30.8213 166.854 29.7387 168.068 28.824C167.694 28.656 167.368 28.4787 167.088 28.292C166.826 28.1053 166.593 27.9093 166.388 27.704V27.06L168.824 24.484C167.741 23.532 167.2 22.3093 167.2 20.816C167.2 19.8827 167.424 19.0333 167.872 18.268C168.338 17.5027 168.992 16.896 169.832 16.448C170.672 16 171.689 15.776 172.884 15.776C173.668 15.776 174.396 15.888 175.068 16.112H180.332V18.296L177.952 18.464C178.325 19.1733 178.512 19.9573 178.512 20.816C178.512 21.7493 178.288 22.5987 177.84 23.364C177.392 24.1293 176.738 24.736 175.88 25.184C175.04 25.632 174.041 25.856 172.884 25.856ZM172.884 23.112C173.612 23.112 174.209 22.916 174.676 22.524C175.161 22.132 175.404 21.572 175.404 20.844C175.404 20.116 175.161 19.556 174.676 19.164C174.209 18.772 173.612 18.576 172.884 18.576C172.118 18.576 171.502 18.772 171.036 19.164C170.569 19.556 170.336 20.116 170.336 20.844C170.336 21.572 170.569 22.132 171.036 22.524C171.502 22.916 172.118 23.112 172.884 23.112ZM169.524 31.708C169.524 32.3987 169.841 32.912 170.476 33.248C171.129 33.6027 171.922 33.78 172.856 33.78C173.752 33.78 174.48 33.5933 175.04 33.22C175.6 32.8653 175.88 32.38 175.88 31.764C175.88 31.26 175.693 30.84 175.32 30.504C174.965 30.168 174.246 29.9627 173.164 29.888C172.398 29.832 171.689 29.748 171.036 29.636C170.494 29.9347 170.102 30.2613 169.86 30.616C169.636 30.9707 169.524 31.3347 169.524 31.708ZM189.146 30.336C187.746 30.336 186.505 30.0373 185.422 29.44C184.339 28.8427 183.49 28.0027 182.874 26.92C182.258 25.8373 181.95 24.5867 181.95 23.168C181.95 21.7307 182.249 20.452 182.846 19.332C183.462 18.212 184.302 17.344 185.366 16.728C186.449 16.0933 187.718 15.776 189.174 15.776C190.537 15.776 191.741 16.0747 192.786 16.672C193.831 17.2693 194.643 18.0907 195.222 19.136C195.819 20.1627 196.118 21.3107 196.118 22.58C196.118 22.7853 196.109 23 196.09 23.224C196.09 23.448 196.081 23.6813 196.062 23.924H185.506C185.581 25.0067 185.954 25.856 186.626 26.472C187.317 27.088 188.147 27.396 189.118 27.396C189.846 27.396 190.453 27.2373 190.938 26.92C191.442 26.584 191.815 26.1547 192.058 25.632H195.698C195.437 26.5093 194.998 27.312 194.382 28.04C193.785 28.7493 193.038 29.3093 192.142 29.72C191.265 30.1307 190.266 30.336 189.146 30.336ZM189.174 18.688C188.297 18.688 187.522 18.94 186.85 19.444C186.178 19.9293 185.749 20.676 185.562 21.684H192.478C192.422 20.7693 192.086 20.0413 191.47 19.5C190.854 18.9587 190.089 18.688 189.174 18.688Z" fill="#00DC82"/>
<path d="M0 9.56522C0 6.49163 2.49163 4 5.56522 4H26.4348C29.5084 4 32 6.49163 32 9.56522V30.4348C32 33.5084 29.5084 36 26.4348 36H5.56522C2.49163 36 0 33.5084 0 30.4348V9.56522Z" fill="#00DC82"/>
<path d="M8.65521 20.8635C6.5865 21.1108 4.89028 24.8725 3.80004 28.4222C3.15362 30.5269 4.6817 32.5895 6.65292 32.5378C10.5862 32.4348 16.0758 32.4282 20.9256 32.813C29.4943 33.493 20.5374 21.2771 17.4071 25.4456C14.2769 29.614 10.9779 20.5859 8.65521 20.8635Z" fill="white" fill-opacity="0.5"/>
<path d="M21.095 22.3665C23.6168 22.6396 26.0282 26.2911 27.6464 29.6219C28.4468 31.2694 27.311 33.1422 25.6724 33.0743C21.0094 32.8813 13.9559 32.7249 7.82781 33.0016C-2.16293 33.4529 7.19083 22.5105 11.2588 26.3654C15.3269 30.2203 16.6728 21.8875 21.095 22.3665Z" fill="#003C3C"/>
<circle cx="6.56002" cy="10.56" r="3.04" fill="white"/>
</svg>
