<svg width="1256" height="586" viewBox="0 0 1256 586" fill="none" xmlns="http://www.w3.org/2000/svg">
<g clip-path="url(#clip0)" filter="url(#filter0_dd)">
<g style="mix-blend-mode:multiply">
<rect x="20" width="1216" height="546" fill="url(#paint0_linear)"/>
</g>
<rect x="20" width="1216" height="546" fill="url(#paint1_linear)"/>
<path d="M220.65 386C72.4858 386 16.7058 465.33 -42.3519 535.572C-100.857 619.033 5.40711 618.033 112.187 617.011C325.25 614.972 622.619 614.841 885.33 622.457C1349.5 635.912 864.303 394.185 694.738 476.67C525.173 559.155 393.169 386 220.65 386Z" fill="#3C6D6D"/>
<path d="M947.85 442C1085.23 442 1215.04 519.491 1302.68 585.258C1377.89 641.691 1302.68 651.991 1191.85 651.991C947.85 651.991 561.515 651.117 229.276 651.991C-316.016 653.426 208.694 480.573 415.107 520.958C643.479 565.64 810.548 442 947.85 442Z" fill="#003C3C"/>
</g>
<defs>
<filter id="filter0_dd" x="0" y="0" width="1256" height="586" filterUnits="userSpaceOnUse" color-interpolation-filters="sRGB">
<feFlood flood-opacity="0" result="BackgroundImageFix"/>
<feColorMatrix in="SourceAlpha" type="matrix" values="0 0 0 0 0 0 0 0 0 0 0 0 0 0 0 0 0 0 127 0"/>
<feMorphology radius="5" operator="erode" in="SourceAlpha" result="effect1_dropShadow"/>
<feOffset dy="10"/>
<feGaussianBlur stdDeviation="5"/>
<feColorMatrix type="matrix" values="0 0 0 0 0 0 0 0 0 0 0 0 0 0 0 0 0 0 0.04 0"/>
<feBlend mode="normal" in2="BackgroundImageFix" result="effect1_dropShadow"/>
<feColorMatrix in="SourceAlpha" type="matrix" values="0 0 0 0 0 0 0 0 0 0 0 0 0 0 0 0 0 0 127 0"/>
<feMorphology radius="5" operator="erode" in="SourceAlpha" result="effect2_dropShadow"/>
<feOffset dy="20"/>
<feGaussianBlur stdDeviation="12.5"/>
<feColorMatrix type="matrix" values="0 0 0 0 0 0 0 0 0 0 0 0 0 0 0 0 0 0 0.1 0"/>
<feBlend mode="normal" in2="effect1_dropShadow" result="effect2_dropShadow"/>
<feBlend mode="normal" in="SourceGraphic" in2="effect2_dropShadow" result="shape"/>
</filter>
<linearGradient id="paint0_linear" x1="628" y1="0" x2="628" y2="546" gradientUnits="userSpaceOnUse">
<stop stop-color="#003C3C"/>
<stop offset="1" stop-color="#002021"/>
</linearGradient>
<linearGradient id="paint1_linear" x1="628" y1="0" x2="628" y2="546" gradientUnits="userSpaceOnUse">
<stop stop-color="#003C3C"/>
<stop offset="1" stop-color="#002021"/>
</linearGradient>
<clipPath id="clip0">
<rect width="1216" height="546" fill="white" transform="translate(20)"/>
</clipPath>
</defs>
</svg>
