<svg width="1256" height="586" viewBox="0 0 1256 586" fill="none" xmlns="http://www.w3.org/2000/svg">
<g filter="url(#filter0_dd)">
<g clip-path="url(#clip0)">
<g style="mix-blend-mode:multiply">
<rect x="20" width="1216" height="546" fill="url(#paint0_linear)"/>
</g>
<path d="M220.65 321C72.4858 321 16.7058 400.33 -42.3519 470.572C-100.857 554.033 5.4071 553.033 112.187 552.011C325.25 549.972 622.619 549.841 885.33 557.457C1349.5 570.912 864.303 329.185 694.738 411.67C525.173 494.155 393.169 321 220.65 321Z" fill="#3C6D6D"/>
<path d="M947.85 377C1085.23 377 1215.04 454.491 1302.68 520.258C1377.89 576.691 1302.68 586.991 1191.85 586.991C947.85 586.991 561.515 586.117 229.276 586.991C-316.016 588.426 208.694 415.573 415.107 455.958C643.479 500.64 810.548 377 947.85 377Z" fill="#003C3C"/>
<path d="M69.1503 40.0001C-68.2318 40.0001 -198.039 -37.4909 -285.684 -103.258C-360.891 -159.691 -285.684 -169.991 -174.846 -169.991C69.1499 -169.991 455.485 -169.117 787.724 -169.991C1333.02 -171.426 808.306 1.42736 601.893 -38.9583C373.521 -83.6401 206.452 40.0001 69.1503 40.0001Z" fill="#E7FEFD"/>
<path d="M1469.85 113C1607.23 113 1737.04 35.5091 1824.68 -30.2575C1899.89 -86.6914 1824.68 -96.991 1713.85 -96.991C1469.85 -96.991 1083.52 -96.1167 751.276 -96.9911C205.984 -98.4261 730.694 74.4274 937.107 34.0417C1165.48 -10.6401 1332.55 113 1469.85 113Z" fill="#E7FEFD"/>
<circle cx="1099" cy="113" r="45" fill="white"/>
</g>
</g>
<defs>
<filter id="filter0_dd" x="0" y="0" width="1256" height="586" filterUnits="userSpaceOnUse" color-interpolation-filters="sRGB">
<feFlood flood-opacity="0" result="BackgroundImageFix"/>
<feColorMatrix in="SourceAlpha" type="matrix" values="0 0 0 0 0 0 0 0 0 0 0 0 0 0 0 0 0 0 127 0"/>
<feMorphology radius="5" operator="erode" in="SourceAlpha" result="effect1_dropShadow"/>
<feOffset dy="10"/>
<feGaussianBlur stdDeviation="5"/>
<feColorMatrix type="matrix" values="0 0 0 0 0 0 0 0 0 0 0 0 0 0 0 0 0 0 0.04 0"/>
<feBlend mode="normal" in2="BackgroundImageFix" result="effect1_dropShadow"/>
<feColorMatrix in="SourceAlpha" type="matrix" values="0 0 0 0 0 0 0 0 0 0 0 0 0 0 0 0 0 0 127 0"/>
<feMorphology radius="5" operator="erode" in="SourceAlpha" result="effect2_dropShadow"/>
<feOffset dy="20"/>
<feGaussianBlur stdDeviation="12.5"/>
<feColorMatrix type="matrix" values="0 0 0 0 0 0 0 0 0 0 0 0 0 0 0 0 0 0 0.1 0"/>
<feBlend mode="normal" in2="effect1_dropShadow" result="effect2_dropShadow"/>
<feBlend mode="normal" in="SourceGraphic" in2="effect2_dropShadow" result="shape"/>
</filter>
<linearGradient id="paint0_linear" x1="628" y1="0" x2="628" y2="546" gradientUnits="userSpaceOnUse">
<stop stop-color="#003C3C"/>
<stop offset="1" stop-color="#002021"/>
</linearGradient>
<clipPath id="clip0">
<rect x="20" width="1216" height="546" rx="16" fill="white"/>
</clipPath>
</defs>
</svg>
