<svg width="1012" height="506" viewBox="0 0 1012 506" fill="none" xmlns="http://www.w3.org/2000/svg">
<g clip-path="url(#clip0)">
<rect width="1012" height="506" fill="white"/>
<g filter="url(#filter0_dd)">
<g clip-path="url(#clip1)">
<g style="mix-blend-mode:multiply">
<rect x="-135" y="-40" width="1216" height="546" fill="url(#paint0_linear)"/>
</g>
<path d="M65.65 346C-82.5142 346 -138.294 425.33 -197.352 495.572C-255.857 579.033 -149.593 578.033 -42.8127 577.011C170.25 574.972 467.619 574.841 730.33 582.457C1194.5 595.912 709.303 354.185 539.738 436.67C370.173 519.155 238.169 346 65.65 346Z" fill="#3C6D6D"/>
<path d="M792.85 402C930.232 402 1060.04 479.491 1147.68 545.258C1222.89 601.691 1147.68 611.991 1036.85 611.991C792.85 611.991 406.515 611.117 74.2763 611.991C-471.016 613.426 53.6944 440.573 260.107 480.958C488.479 525.64 655.548 402 792.85 402Z" fill="#003C3C"/>
<path d="M401.503 314V294.904H405.853L406.238 298.138C406.828 297.009 407.675 296.11 408.779 295.443C409.908 294.776 411.23 294.442 412.745 294.442C415.106 294.442 416.941 295.186 418.25 296.675C419.559 298.164 420.213 300.345 420.213 303.22V314H415.286V303.682C415.286 302.039 414.952 300.782 414.285 299.909C413.617 299.036 412.578 298.6 411.166 298.6C409.78 298.6 408.638 299.088 407.74 300.063C406.867 301.038 406.431 302.399 406.431 304.144V314H401.503ZM432.087 314.462C429.7 314.462 427.852 313.718 426.543 312.229C425.26 310.74 424.618 308.559 424.618 305.684V294.904H429.507V305.222C429.507 306.865 429.841 308.122 430.508 308.995C431.176 309.868 432.228 310.304 433.665 310.304C435.026 310.304 436.142 309.816 437.015 308.841C437.913 307.866 438.362 306.505 438.362 304.76V294.904H443.29V314H438.94L438.555 310.766C437.965 311.895 437.105 312.794 435.975 313.461C434.872 314.128 433.576 314.462 432.087 314.462ZM446.54 314L453.47 304.452L446.54 294.904H451.814L456.665 301.68L461.478 294.904H466.791L459.822 304.452L466.791 314H461.478L456.665 307.224L451.814 314H446.54ZM478.439 314C476.437 314 474.833 313.512 473.626 312.537C472.42 311.562 471.817 309.829 471.817 307.339V299.023H468.544V294.904H471.817L472.394 289.783H476.745V294.904H481.904V299.023H476.745V307.378C476.745 308.302 476.937 308.944 477.322 309.303C477.733 309.637 478.426 309.803 479.401 309.803H481.788V314H478.439ZM484.518 318.274L494.143 284.085H498.955L489.292 318.274H484.518Z" fill="white"/>
<path d="M504.996 291.939C504.098 291.939 503.353 291.67 502.763 291.131C502.198 290.592 501.916 289.912 501.916 289.09C501.916 288.269 502.198 287.602 502.763 287.088C503.353 286.549 504.098 286.28 504.996 286.28C505.894 286.28 506.626 286.549 507.19 287.088C507.781 287.602 508.076 288.269 508.076 289.09C508.076 289.912 507.781 290.592 507.19 291.131C506.626 291.67 505.894 291.939 504.996 291.939ZM502.532 314V294.904H507.46V314H502.532ZM512.604 314V294.904H516.954L517.378 297.483C517.994 296.559 518.802 295.828 519.803 295.289C520.83 294.724 522.01 294.442 523.345 294.442C526.297 294.442 528.389 295.584 529.621 297.868C530.314 296.816 531.238 295.982 532.393 295.366C533.573 294.75 534.857 294.442 536.243 294.442C538.732 294.442 540.644 295.186 541.979 296.675C543.314 298.164 543.981 300.345 543.981 303.22V314H539.053V303.682C539.053 302.039 538.732 300.782 538.091 299.909C537.475 299.036 536.512 298.6 535.203 298.6C533.868 298.6 532.79 299.088 531.969 300.063C531.173 301.038 530.776 302.399 530.776 304.144V314H525.848V303.682C525.848 302.039 525.527 300.782 524.885 299.909C524.243 299.036 523.255 298.6 521.921 298.6C520.612 298.6 519.546 299.088 518.725 300.063C517.929 301.038 517.532 302.399 517.532 304.144V314H512.604ZM555.243 314.462C553.601 314.462 552.253 314.205 551.201 313.692C550.148 313.153 549.366 312.447 548.852 311.574C548.339 310.702 548.082 309.739 548.082 308.687C548.082 306.916 548.775 305.479 550.161 304.375C551.547 303.271 553.626 302.719 556.398 302.719H561.249V302.257C561.249 300.948 560.877 299.986 560.133 299.37C559.388 298.754 558.464 298.446 557.361 298.446C556.36 298.446 555.487 298.69 554.743 299.177C553.998 299.639 553.536 300.332 553.357 301.256H548.544C548.673 299.87 549.135 298.664 549.93 297.637C550.752 296.611 551.804 295.828 553.087 295.289C554.371 294.724 555.808 294.442 557.399 294.442C560.12 294.442 562.263 295.122 563.829 296.482C565.394 297.843 566.177 299.768 566.177 302.257V314H561.981L561.519 310.92C560.954 311.947 560.158 312.794 559.132 313.461C558.131 314.128 556.835 314.462 555.243 314.462ZM556.36 310.612C557.771 310.612 558.862 310.15 559.632 309.226C560.428 308.302 560.928 307.16 561.134 305.799H556.937C555.628 305.799 554.691 306.043 554.127 306.531C553.562 306.993 553.28 307.57 553.28 308.263C553.28 309.008 553.562 309.585 554.127 309.996C554.691 310.407 555.436 310.612 556.36 310.612ZM578.965 308.302C578.041 308.302 577.181 308.199 576.385 307.994L574.961 309.418C575.397 309.649 575.988 309.842 576.732 309.996C577.476 310.15 578.683 310.304 580.351 310.458C582.892 310.689 584.74 311.292 585.895 312.267C587.05 313.243 587.627 314.59 587.627 316.31C587.627 317.439 587.319 318.505 586.703 319.506C586.087 320.532 585.138 321.354 583.854 321.97C582.571 322.611 580.928 322.932 578.926 322.932C576.206 322.932 574.011 322.419 572.343 321.392C570.675 320.391 569.84 318.877 569.84 316.849C569.84 315.129 570.675 313.641 572.343 312.383C571.83 312.152 571.38 311.908 570.995 311.651C570.636 311.395 570.315 311.125 570.033 310.843V309.957L573.382 306.415C571.894 305.106 571.149 303.425 571.149 301.372C571.149 300.089 571.457 298.921 572.073 297.868C572.715 296.816 573.613 295.982 574.768 295.366C575.923 294.75 577.322 294.442 578.965 294.442C580.043 294.442 581.044 294.596 581.968 294.904H589.206V297.907L585.933 298.138C586.447 299.113 586.703 300.191 586.703 301.372C586.703 302.655 586.395 303.823 585.779 304.875C585.163 305.928 584.265 306.762 583.084 307.378C581.929 307.994 580.556 308.302 578.965 308.302ZM578.965 304.529C579.966 304.529 580.787 304.259 581.429 303.72C582.096 303.181 582.43 302.411 582.43 301.41C582.43 300.409 582.096 299.639 581.429 299.1C580.787 298.561 579.966 298.292 578.965 298.292C577.913 298.292 577.066 298.561 576.424 299.1C575.782 299.639 575.461 300.409 575.461 301.41C575.461 302.411 575.782 303.181 576.424 303.72C577.066 304.259 577.913 304.529 578.965 304.529ZM574.345 316.349C574.345 317.298 574.781 318.004 575.654 318.466C576.552 318.954 577.643 319.198 578.926 319.198C580.158 319.198 581.159 318.941 581.929 318.428C582.699 317.94 583.084 317.273 583.084 316.426C583.084 315.733 582.828 315.155 582.314 314.693C581.827 314.231 580.839 313.949 579.35 313.846C578.298 313.769 577.322 313.653 576.424 313.499C575.68 313.91 575.141 314.359 574.807 314.847C574.499 315.335 574.345 315.835 574.345 316.349ZM601.326 314.462C599.401 314.462 597.694 314.051 596.205 313.23C594.717 312.409 593.549 311.254 592.702 309.765C591.855 308.276 591.431 306.557 591.431 304.606C591.431 302.63 591.842 300.871 592.663 299.331C593.51 297.791 594.665 296.598 596.128 295.751C597.617 294.878 599.362 294.442 601.364 294.442C603.238 294.442 604.894 294.853 606.331 295.674C607.768 296.495 608.885 297.625 609.68 299.062C610.502 300.474 610.912 302.052 610.912 303.797C610.912 304.08 610.9 304.375 610.874 304.683C610.874 304.991 610.861 305.312 610.835 305.645H596.321C596.424 307.134 596.937 308.302 597.861 309.149C598.811 309.996 599.953 310.419 601.287 310.419C602.288 310.419 603.123 310.201 603.79 309.765C604.483 309.303 604.996 308.713 605.33 307.994H610.335C609.976 309.2 609.372 310.304 608.525 311.305C607.704 312.28 606.677 313.05 605.445 313.615C604.239 314.18 602.866 314.462 601.326 314.462ZM601.364 298.446C600.158 298.446 599.093 298.792 598.169 299.485C597.245 300.153 596.655 301.179 596.398 302.565H605.907C605.83 301.308 605.368 300.307 604.521 299.562C603.674 298.818 602.622 298.446 601.364 298.446Z" fill="#00DC82"/>
<path d="M508.978 181.514H530.167C530.84 181.514 531.501 181.336 532.084 180.998C532.667 180.66 533.151 180.173 533.487 179.588C533.823 179.002 534 178.338 534 177.662C534 176.986 533.822 176.322 533.485 175.737L519.255 150.978C518.919 150.393 518.435 149.906 517.852 149.568C517.27 149.23 516.609 149.052 515.936 149.052C515.263 149.052 514.602 149.23 514.019 149.568C513.436 149.906 512.952 150.393 512.616 150.978L508.978 157.313L501.863 144.925C501.527 144.34 501.043 143.854 500.46 143.516C499.877 143.178 499.216 143 498.543 143C497.87 143 497.209 143.178 496.626 143.516C496.043 143.854 495.559 144.34 495.222 144.925L477.515 175.737C477.178 176.322 477 176.986 477 177.662C477 178.338 477.177 179.002 477.513 179.588C477.849 180.173 478.333 180.66 478.916 180.998C479.499 181.336 480.16 181.514 480.833 181.514H494.134C499.404 181.514 503.29 179.188 505.965 174.652L512.457 163.357L515.935 157.313L526.371 175.469H512.457L508.978 181.514ZM493.917 175.463L484.635 175.461L498.549 151.254L505.492 163.357L500.843 171.447C499.067 174.39 497.05 175.463 493.917 175.463Z" fill="#00DC82"/>
</g>
</g>
<path d="M292.94 233.182C292.94 218.757 283.82 210.767 272.102 210.767C260.34 210.767 251.285 218.757 251.285 233.182C251.285 247.543 260.34 255.597 272.102 255.597C283.82 255.597 292.94 247.607 292.94 233.182ZM282.159 233.182C282.159 241.726 278.409 246.349 272.102 246.349C265.816 246.349 262.045 241.726 262.045 233.182C262.045 224.638 265.816 220.014 272.102 220.014C278.409 220.014 282.159 224.638 282.159 233.182ZM297.597 267.273H308.017V249.695H308.23C309.551 252.72 312.491 255.469 317.434 255.469C324.678 255.469 330.517 249.801 330.517 238.658C330.517 227.109 324.338 221.847 317.498 221.847C312.32 221.847 309.487 224.872 308.23 227.876H307.91V222.273H297.597V267.273ZM307.803 238.636C307.803 233.288 310.019 229.986 313.833 229.986C317.69 229.986 319.82 233.374 319.82 238.636C319.82 243.92 317.69 247.351 313.833 247.351C310.019 247.351 307.803 243.942 307.803 238.636ZM352.949 222.273H347.047V214.432H336.628V222.273H332.303V229.943H336.628V245.859C336.564 252.486 340.868 255.81 348.219 255.469C350.733 255.341 352.545 254.83 353.546 254.531L351.969 247.01C351.522 247.116 350.478 247.33 349.689 247.33C348.006 247.33 347.047 246.648 347.047 244.709V229.943H352.949V222.273ZM356.765 255H367.184V222.273H356.765V255ZM361.986 218.459C364.947 218.459 367.334 216.222 367.334 213.473C367.334 210.724 364.947 208.509 361.986 208.509C359.045 208.509 356.638 210.724 356.638 213.473C356.638 216.222 359.045 218.459 361.986 218.459ZM372.316 255H382.735V235.632C382.735 232.393 384.632 230.327 387.359 230.327C390.065 230.327 391.855 232.223 391.855 235.249V255H401.869V235.462C401.869 232.33 403.595 230.327 406.471 230.327C409.113 230.327 410.988 232.095 410.988 235.355V255H421.407V232.969C421.407 226.044 417.146 221.847 410.967 221.847C406.13 221.847 402.316 224.382 401.102 228.281H400.761C399.887 224.361 396.372 221.847 391.833 221.847C387.359 221.847 383.95 224.297 382.586 228.281H382.224V222.273H372.316V255ZM426.363 255H436.782V222.273H426.363V255ZM431.583 218.459C434.545 218.459 436.931 216.222 436.931 213.473C436.931 210.724 434.545 208.509 431.583 208.509C428.643 208.509 426.235 210.724 426.235 213.473C426.235 216.222 428.643 218.459 431.583 218.459ZM441.999 255H470.103V246.903H455.529V246.69L469.591 228.793V222.273H442.532V230.369H457.17V230.582L441.999 249.055V255ZM489.697 255.618C498.283 255.618 503.93 251.463 505.123 245.028L495.556 244.751C494.746 246.925 492.616 248.097 489.888 248.097C485.883 248.097 483.411 245.433 483.411 241.428V241.151H505.229V238.551C505.229 227.77 498.667 221.847 489.377 221.847C479.491 221.847 473.141 228.622 473.141 238.764C473.141 249.247 479.405 255.618 489.697 255.618ZM483.411 235.099C483.56 231.839 486.138 229.368 489.59 229.368C493.02 229.368 495.492 231.754 495.535 235.099H483.411ZM521.004 255.469C525.947 255.469 528.887 252.72 530.208 249.695H530.528V255H540.84V211.364H530.421V227.876H530.208C528.972 224.872 526.117 221.847 520.961 221.847C514.122 221.847 507.921 227.109 507.921 238.658C507.921 249.801 513.781 255.469 521.004 255.469ZM524.626 247.351C520.769 247.351 518.617 243.92 518.617 238.636C518.617 233.374 520.748 229.986 524.626 229.986C528.44 229.986 530.656 233.288 530.656 238.636C530.656 243.942 528.419 247.351 524.626 247.351ZM567.867 211.364H557.32V255H567.867V211.364ZM572.988 255H583.407V235.632C583.407 232.393 585.303 230.327 588.031 230.327C590.737 230.327 592.526 232.223 592.526 235.249V255H602.541V235.462C602.541 232.33 604.267 230.327 607.143 230.327C609.785 230.327 611.66 232.095 611.66 235.355V255H622.079V232.969C622.079 226.044 617.818 221.847 611.639 221.847C606.802 221.847 602.988 224.382 601.774 228.281H601.433C600.559 224.361 597.044 221.847 592.505 221.847C588.031 221.847 584.622 224.297 583.258 228.281H582.896V222.273H572.988V255ZM636.261 255.554C640.82 255.554 643.974 253.786 645.764 250.44H646.019V255H655.82V232.756C655.82 225.831 649.663 221.847 641.332 221.847C632.532 221.847 627.546 226.278 626.715 232.244L636.325 232.585C636.772 230.497 638.498 229.219 641.247 229.219C643.803 229.219 645.423 230.455 645.423 232.649V232.756C645.423 234.759 643.249 235.185 637.667 235.675C631.041 236.229 625.501 238.679 625.501 245.923C625.501 252.401 629.997 255.554 636.261 255.554ZM639.478 248.736C637.07 248.736 635.366 247.585 635.366 245.412C635.366 243.303 637.028 242.024 639.99 241.577C641.928 241.3 644.315 240.874 645.487 240.256V243.366C645.487 246.562 642.802 248.736 639.478 248.736ZM675.947 267.955C685.812 267.955 692.545 263.459 692.545 255.128V222.273H682.169V227.876H681.87C680.613 224.872 677.758 221.847 672.602 221.847C665.762 221.847 659.562 227.109 659.562 238.594C659.562 249.716 665.464 254.553 672.644 254.553C677.46 254.553 680.677 252.315 681.913 249.29H682.275V255.043C682.275 259.219 679.718 260.732 676.224 260.732C672.879 260.732 670.876 259.453 670.322 257.429L660.457 257.983C661.224 263.714 666.615 267.955 675.947 267.955ZM676.267 246.967C672.41 246.967 670.258 243.835 670.258 238.594C670.258 233.374 672.389 229.986 676.267 229.986C680.08 229.986 682.296 233.288 682.296 238.594C682.296 243.857 680.059 246.967 676.267 246.967ZM712.986 255.618C721.572 255.618 727.219 251.463 728.412 245.028L718.845 244.751C718.035 246.925 715.905 248.097 713.177 248.097C709.172 248.097 706.7 245.433 706.7 241.428V241.151H728.518V238.551C728.518 227.77 721.956 221.847 712.666 221.847C702.78 221.847 696.43 228.622 696.43 238.764C696.43 249.247 702.694 255.618 712.986 255.618ZM706.7 235.099C706.849 231.839 709.427 229.368 712.879 229.368C716.309 229.368 718.781 231.754 718.824 235.099H706.7ZM760.912 232.266C760.358 225.788 755.053 221.847 746.189 221.847C737.325 221.847 731.679 225.703 731.722 232.266C731.679 237.294 734.896 240.533 741.438 241.747L747.148 242.834C749.854 243.366 751.09 244.219 751.132 245.668C751.09 247.308 749.257 248.395 746.594 248.395C743.632 248.395 741.629 247.116 741.182 244.73L730.891 244.986C731.637 251.463 737.198 255.618 746.551 255.618C755.308 255.618 761.679 251.25 761.722 244.517C761.679 239.744 758.526 236.911 752.006 235.653L745.699 234.46C742.929 233.906 742.034 232.926 742.056 231.669C742.034 230.007 743.973 228.984 746.381 228.984C749.129 228.984 751.047 230.455 751.345 232.521L760.912 232.266Z" fill="white"/>
</g>
<defs>
<filter id="filter0_dd" x="-155" y="-40" width="1256" height="586" filterUnits="userSpaceOnUse" color-interpolation-filters="sRGB">
<feFlood flood-opacity="0" result="BackgroundImageFix"/>
<feColorMatrix in="SourceAlpha" type="matrix" values="0 0 0 0 0 0 0 0 0 0 0 0 0 0 0 0 0 0 127 0"/>
<feMorphology radius="5" operator="erode" in="SourceAlpha" result="effect1_dropShadow"/>
<feOffset dy="10"/>
<feGaussianBlur stdDeviation="5"/>
<feColorMatrix type="matrix" values="0 0 0 0 0 0 0 0 0 0 0 0 0 0 0 0 0 0 0.04 0"/>
<feBlend mode="normal" in2="BackgroundImageFix" result="effect1_dropShadow"/>
<feColorMatrix in="SourceAlpha" type="matrix" values="0 0 0 0 0 0 0 0 0 0 0 0 0 0 0 0 0 0 127 0"/>
<feMorphology radius="5" operator="erode" in="SourceAlpha" result="effect2_dropShadow"/>
<feOffset dy="20"/>
<feGaussianBlur stdDeviation="12.5"/>
<feColorMatrix type="matrix" values="0 0 0 0 0 0 0 0 0 0 0 0 0 0 0 0 0 0 0.1 0"/>
<feBlend mode="normal" in2="effect1_dropShadow" result="effect2_dropShadow"/>
<feBlend mode="normal" in="SourceGraphic" in2="effect2_dropShadow" result="shape"/>
</filter>
<linearGradient id="paint0_linear" x1="473" y1="-40" x2="473" y2="506" gradientUnits="userSpaceOnUse">
<stop stop-color="#003C3C"/>
<stop offset="1" stop-color="#002021"/>
</linearGradient>
<clipPath id="clip0">
<rect width="1012" height="506" fill="white"/>
</clipPath>
<clipPath id="clip1">
<rect x="-135" y="-40" width="1216" height="546" rx="16" fill="white"/>
</clipPath>
</defs>
</svg>
