<?xml version="1.0" encoding="UTF-8"?><svg version="1.1" xmlns="http://www.w3.org/2000/svg" xmlns:xlink="http://www.w3.org/1999/xlink" viewBox="0 0 1200 800" width="1200" height="800" x="0px" y="0px">
              
              <!-- ITEM 0 -->
<g>
    <defs>
        
        <clipPath id="clip-path-id-viewbox-item-0">
            <rect x="0.0" y="0.0" width="733.14641" height="440.10359"/>
        </clipPath>
    </defs>
    <g transform="translate(113.0 102.0) rotate(0.0 493.5 297.0) scale(1.3462522444868823 1.349682241855832)">
      <g clip-path="url(#clip-path-id-viewbox-item-0)" transform="translate(-0.0 -0.0)">
      
  
  <g>
    <path d="M497.94772,113.61256a84.74283,84.74283,0,0,0-36.91283,18.53767,288.316,288.316,0,0,0-94.43511-15.78884c-3.27693,0-6.55386.05417-9.80371.176a85.05588,85.05588,0,0,1,141.15165-2.92487Z" style="         fill: #f3f6e7;       "/>
    <path d="M601.53657,196.592a84.55923,84.55923,0,0,1-6.2695,32.09223,290.24375,290.24375,0,0,0-82.09924-72.43095,287.21626,287.21626,0,0,0-52.13294-24.103A85.03332,85.03332,0,0,1,601.53657,196.592Z" style="         fill: #eebdd2;       "/>
    <path d="M273.424,131.71691v.01355a289.33787,289.33787,0,0,0-133.48743,94.3674A85.01823,85.01823,0,0,1,273.424,131.71691Z" style="         fill: #e06e9c;       "/>
    <path d="M693.80507,397.18871v.18959a19.23264,19.23264,0,0,1-19.174,19.20116H654.15691a27.047,27.047,0,0,0,1.38121-8.55793v-2.72176a287.55418,287.55418,0,0,0-60.271-176.61559,83.87608,83.87608,0,0,0,5.606-21.42191,86.67353,86.67353,0,0,0,.6635-10.67033,85.05156,85.05156,0,0,0-103.58885-82.97936,85.10662,85.10662,0,0,0-141.15163,2.92482,288.34065,288.34065,0,0,0-83.3721,15.19308v-.01356a85.00876,85.00876,0,0,0-138.25392,66.29681c0,1.96346.06769,3.89982.20315,5.82271a83.74059,83.74059,0,0,0,4.56332,22.26136,287.66617,287.66617,0,0,0-62.27517,179.202v2.72176a27.04921,27.04921,0,0,0,1.38113,8.55793H57.404a19.42059,19.42059,0,0,1-19.36365-19.36365v-.0271c0-40.10851-42.749-85.02407-30.99543-121.21929,12.17337-37.52213,52.36313-54.19113,75.085-85.41681,22.95205-31.55057,22.3698-87.71872,53.92037-110.67077,31.2256-22.7218,84.347-4.96954,121.86923-17.15646C294.11465,50.97178,326.47773,5,366.5998,5s72.47151,45.9718,108.68028,57.7254C512.78866,74.9123,565.92371,57.16,597.14931,79.88184c31.537,22.95205,30.95468,79.1202,53.90682,110.67077,22.73527,31.22568,62.91155,47.89468,75.09847,85.41681C737.90828,312.16464,693.80507,357.0802,693.80507,397.18871Z" style="         fill: #7fd7c3;       "/>
    <path d="M139.93655,226.09786A288.20429,288.20429,0,0,1,356.79607,116.53743c3.24985-.12187,6.52678-.176,9.80371-.176a288.95386,288.95386,0,0,1,288.93839,288.9384v2.72175a27.0587,27.0587,0,0,1-27.082,27.082H104.74343a27.0587,27.0587,0,0,1-27.08205-27.082v-2.72175A287.6658,287.6658,0,0,1,139.93655,226.09786Z" style="         fill: #f6e258;       "/>
    <g>
      <path d="M628.45618,440.10342H104.74329a32.0577,32.0577,0,0,1-32.082-32.082v-2.72168A293.63483,293.63483,0,0,1,356.629,111.54019q.085-.00256.16992-.00269a5.00006,5.00006,0,0,1,.16406,9.99732A283.90511,283.90511,0,0,0,82.66126,405.29971v2.72168a22.0563,22.0563,0,0,0,22.082,22.082H628.45618a22.05688,22.05688,0,0,0,22.082-22.082v-2.72168A284.16625,284.16625,0,0,0,510.62708,160.56a5.00029,5.00029,0,0,1,5.082-8.613,294.16827,294.16827,0,0,1,144.8291,253.35279v2.72168a32.05833,32.05833,0,0,1-32.082,32.082Z" style="         fill: #383a47;       "/>
      <path d="M674.631,421.57949H654.15735a5,5,0,0,1,0-10H674.631a14.23312,14.23312,0,0,0,14.17383-14.19482v-.1958c0-19.0376,9.13867-38.62744,17.97754-57.57227,10.54688-22.60693,20.50781-43.96,14.61621-62.10254-6.916-21.29638-23.53613-35.55761-41.13086-50.65625-11.74414-10.07812-23.88867-20.499-33.2539-33.3623-10.21094-14.03565-15.93067-32.52734-21.46192-50.40991-7.46094-24.12281-14.50879-46.90821-31.34473-59.16089C577.60364,71.84292,553.89173,72.13589,528.7843,72.445c-18.83886.23218-38.31543.47241-55.04882-4.96411-15.90625-5.16333-31.01563-16.53345-45.62793-27.5293C408.53919,25.22647,388.30481,9.9999,366.59973,9.9999c-21.709,0-41.94922,15.23-61.52246,29.9585C290.4679,50.95132,275.36145,62.31826,259.463,67.4811c-16.7373,5.43628-36.21875,5.196-55.05371,4.96387-25.10156-.30884-48.81347-.60254-65.417,11.48-16.8457,12.25488-23.89648,35.0437-31.36035,59.17041-5.53125,17.87915-11.251,36.367-21.459,50.39868-9.36231,12.86621-21.50782,23.28907-33.25391,33.36866-17.59277,15.09716-34.21,29.35693-41.11817,50.6499-5.9248,18.24512,3.73438,39.6875,13.96094,62.38867,8.49414,18.85742,17.27832,38.35693,17.27832,57.2876a14.38561,14.38561,0,0,0,14.36426,14.39062h21.6377a5,5,0,1,1,0,10H57.40442a24.39165,24.39165,0,0,1-24.36426-24.36377c0-16.80908-8.335-35.313-16.39648-53.207C6.088,320.57461-4.828,296.34317,2.28919,274.4252c7.77441-23.96436,26.25-39.81885,44.11816-55.15137,11.30957-9.70557,23.00488-19.7417,31.67969-31.66309,9.23144-12.68945,14.70117-30.37109,19.99121-47.4707,7.61914-24.62646,15.49707-50.09131,35.03027-64.30127,19.28906-14.03613,45.79883-13.70972,71.42383-13.39307,18.03223.22168,36.66992.45215,51.8418-4.47558,14.30957-4.64673,28.0957-15.02,42.69043-26.0022C319.9513,16.25137,341.549-.0001,366.59973-.0001c25.04688,0,46.63965,16.24805,67.52051,31.96143,14.59766,10.98486,28.38574,21.36084,42.7041,26.00854,15.16895,4.92823,33.8125,4.69849,51.83692,4.47583,25.63086-.31689,52.13964-.64355,71.42968,13.39331,19.52344,14.20874,27.39844,39.66944,35.01465,64.29175,5.29,17.103,10.75977,34.78809,19.99317,47.48047,8.67773,11.91846,20.37207,21.95313,31.68066,31.65772,17.86914,15.33349,36.34668,31.189,44.13086,55.15625,7.1084,21.88916-4.16406,46.05224-15.06543,69.41894-8.37793,17.957-17.04,36.52539-17.04,53.34473v.18945A24.23139,24.23139,0,0,1,674.631,421.57949Z" style="         fill: #383a47;       "/>
      <path d="M139.93665,231.10488a4.99944,4.99944,0,0,1-4.793-3.56543,90.01837,90.01837,0,0,1,141.415-99.71777,5,5,0,1,1-6.26953,7.79053,79.07841,79.07841,0,0,0-50.09473-17.636,80.05025,80.05025,0,0,0-75.541,106.46411,5.00484,5.00484,0,0,1-4.71679,6.66455Z" style="         fill: #383a47;       "/>
      <path d="M595.26477,233.68545a5.00343,5.00343,0,0,1-4.626-6.89453A80.03834,80.03834,0,0,0,464.297,135.9396a4.99976,4.99976,0,0,1-6.52344-7.57861A90.04863,90.04863,0,0,1,599.89465,230.57705,5.00342,5.00342,0,0,1,595.26477,233.68545Z" style="         fill: #383a47;       "/>
      <path d="M513.16321,161.2543a4.97451,4.97451,0,0,1-2.53711-.69531,282.43936,282.43936,0,0,0-144.02637-39.19751c-3.32715,0-6.5625.0581-9.61621.1726a5.00011,5.00011,0,0,1-4.39258-7.70215,90.05612,90.05612,0,0,1,149.44532-3.09765,5.00027,5.00027,0,0,1-8.17774,5.75635,80.06011,80.06011,0,0,0-127.09082-5.12915,292.43733,292.43733,0,0,1,148.94238,40.58618,5.00073,5.00073,0,0,1-2.54687,9.30664Z" style="         fill: #383a47;       "/>
    </g>
    <g>
      <path d="M372.33231,414.73725a4.32268,4.32268,0,1,0,4.32262-4.32263A4.32267,4.32267,0,0,0,372.33231,414.73725Z" style="         fill: #383a48;       "/>
      <path d="M359.62366,414.73725a4.32268,4.32268,0,1,0-4.32274,4.32274A4.32268,4.32268,0,0,0,359.62366,414.73725Z" style="         fill: #383a48;       "/>
      <path d="M338.26965,414.73725a4.32268,4.32268,0,1,0-4.32274,4.32274A4.32268,4.32268,0,0,0,338.26965,414.73725Z" style="         fill: #383a48;       "/>
      <path d="M316.91552,414.73725A4.32268,4.32268,0,1,0,312.5929,419.06,4.32257,4.32257,0,0,0,316.91552,414.73725Z" style="         fill: #383a48;       "/>
      <path d="M295.56151,414.73725A4.32262,4.32262,0,1,0,291.239,419.06,4.32255,4.32255,0,0,0,295.56151,414.73725Z" style="         fill: #383a48;       "/>
      <path d="M274.20739,414.73725a4.32263,4.32263,0,1,0-4.32251,4.32274A4.32256,4.32256,0,0,0,274.20739,414.73725Z" style="         fill: #383a48;       "/>
      <path d="M252.85349,414.73725a4.32274,4.32274,0,1,0-4.32274,4.32274A4.3226,4.3226,0,0,0,252.85349,414.73725Z" style="         fill: #383a48;       "/>
      <path d="M231.4996,414.73725a4.32274,4.32274,0,1,0-4.32274,4.32274A4.32275,4.32275,0,0,0,231.4996,414.73725Z" style="         fill: #383a48;       "/>
      <path d="M210.14547,414.73725a4.32262,4.32262,0,1,0-4.32274,4.32274A4.32275,4.32275,0,0,0,210.14547,414.73725Z" style="         fill: #383a48;       "/>
      <path d="M188.79134,414.73725a4.32262,4.32262,0,1,0-4.32273,4.32274A4.3226,4.3226,0,0,0,188.79134,414.73725Z" style="         fill: #383a48;       "/>
      <path d="M167.43745,414.73725a4.32274,4.32274,0,1,0-4.32274,4.32274A4.3226,4.3226,0,0,0,167.43745,414.73725Z" style="         fill: #383a48;       "/>
      <path d="M146.08332,414.73725a4.32262,4.32262,0,1,0-4.3225,4.32274A4.32255,4.32255,0,0,0,146.08332,414.73725Z" style="         fill: #383a48;       "/>
      <path d="M124.7292,414.73725a4.32263,4.32263,0,1,0-4.32251,4.32274A4.32256,4.32256,0,0,0,124.7292,414.73725Z" style="         fill: #383a48;       "/>
      <path d="M103.3753,414.73725A4.32274,4.32274,0,1,0,99.05256,419.06,4.3226,4.3226,0,0,0,103.3753,414.73725Z" style="         fill: #383a48;       "/>
      <path d="M380.97767,393.38324a4.32268,4.32268,0,1,0-4.32274,4.32262A4.32277,4.32277,0,0,0,380.97767,393.38324Z" style="         fill: #383a48;       "/>
      <path d="M359.62366,393.38324a4.32268,4.32268,0,1,0-4.32274,4.32262A4.32277,4.32277,0,0,0,359.62366,393.38324Z" style="         fill: #383a48;       "/>
      <path d="M338.26965,393.38324a4.32268,4.32268,0,1,0-4.32274,4.32262A4.32277,4.32277,0,0,0,338.26965,393.38324Z" style="         fill: #383a48;       "/>
      <path d="M316.91552,393.38324a4.32268,4.32268,0,1,0-4.32262,4.32262A4.32267,4.32267,0,0,0,316.91552,393.38324Z" style="         fill: #383a48;       "/>
      <path d="M295.56151,393.38324a4.32262,4.32262,0,1,0-4.3225,4.32262A4.32264,4.32264,0,0,0,295.56151,393.38324Z" style="         fill: #383a48;       "/>
      <path d="M274.20739,393.38324a4.32263,4.32263,0,1,0-4.32251,4.32262A4.32265,4.32265,0,0,0,274.20739,393.38324Z" style="         fill: #383a48;       "/>
      <path d="M252.85349,393.38324a4.32274,4.32274,0,1,0-4.32274,4.32262A4.32269,4.32269,0,0,0,252.85349,393.38324Z" style="         fill: #383a48;       "/>
      <path d="M231.4996,393.38324a4.32274,4.32274,0,1,0-4.32274,4.32262A4.32285,4.32285,0,0,0,231.4996,393.38324Z" style="         fill: #383a48;       "/>
      <path d="M210.14547,393.38324a4.32262,4.32262,0,1,0-4.32274,4.32262A4.32285,4.32285,0,0,0,210.14547,393.38324Z" style="         fill: #383a48;       "/>
      <path d="M188.79134,393.38324a4.32262,4.32262,0,1,0-4.32273,4.32262A4.32269,4.32269,0,0,0,188.79134,393.38324Z" style="         fill: #383a48;       "/>
      <path d="M167.43745,393.38324a4.32274,4.32274,0,1,0-4.32274,4.32262A4.32269,4.32269,0,0,0,167.43745,393.38324Z" style="         fill: #383a48;       "/>
      <path d="M146.08332,393.38324a4.32262,4.32262,0,1,0-4.3225,4.32262A4.32264,4.32264,0,0,0,146.08332,393.38324Z" style="         fill: #383a48;       "/>
      <path d="M124.7292,393.38324a4.32263,4.32263,0,1,0-4.32251,4.32262A4.32265,4.32265,0,0,0,124.7292,393.38324Z" style="         fill: #383a48;       "/>
      <path d="M103.3753,393.38324a4.32274,4.32274,0,1,0-4.32274,4.32262A4.32269,4.32269,0,0,0,103.3753,393.38324Z" style="         fill: #383a48;       "/>
      <path d="M380.97767,372.02923a4.32268,4.32268,0,1,0-4.32274,4.32262A4.32277,4.32277,0,0,0,380.97767,372.02923Z" style="         fill: #383a48;       "/>
      <path d="M359.62366,372.02923a4.32268,4.32268,0,1,0-4.32274,4.32262A4.32277,4.32277,0,0,0,359.62366,372.02923Z" style="         fill: #383a48;       "/>
      <path d="M338.26965,372.02923a4.32268,4.32268,0,1,0-4.32274,4.32262A4.32277,4.32277,0,0,0,338.26965,372.02923Z" style="         fill: #383a48;       "/>
      <path d="M316.91552,372.02923a4.32268,4.32268,0,1,0-4.32262,4.32262A4.32267,4.32267,0,0,0,316.91552,372.02923Z" style="         fill: #383a48;       "/>
      <path d="M295.56151,372.02923a4.32262,4.32262,0,1,0-4.3225,4.32262A4.32264,4.32264,0,0,0,295.56151,372.02923Z" style="         fill: #383a48;       "/>
      <path d="M274.20739,372.02923a4.32263,4.32263,0,1,0-4.32251,4.32262A4.32265,4.32265,0,0,0,274.20739,372.02923Z" style="         fill: #383a48;       "/>
      <path d="M252.85349,372.02923a4.32274,4.32274,0,1,0-4.32274,4.32262A4.32269,4.32269,0,0,0,252.85349,372.02923Z" style="         fill: #383a48;       "/>
      <path d="M231.4996,372.02923a4.32274,4.32274,0,1,0-4.32274,4.32262A4.32285,4.32285,0,0,0,231.4996,372.02923Z" style="         fill: #383a48;       "/>
      <path d="M210.14547,372.02923a4.32262,4.32262,0,1,0-4.32274,4.32262A4.32285,4.32285,0,0,0,210.14547,372.02923Z" style="         fill: #383a48;       "/>
      <path d="M188.79134,372.02923a4.32262,4.32262,0,1,0-4.32273,4.32262A4.32269,4.32269,0,0,0,188.79134,372.02923Z" style="         fill: #383a48;       "/>
      <path d="M167.43745,372.02923a4.32274,4.32274,0,1,0-4.32274,4.32262A4.32269,4.32269,0,0,0,167.43745,372.02923Z" style="         fill: #383a48;       "/>
      <path d="M146.08332,372.02923a4.32262,4.32262,0,1,0-4.3225,4.32262A4.32264,4.32264,0,0,0,146.08332,372.02923Z" style="         fill: #383a48;       "/>
      <path d="M124.7292,372.02923a4.32263,4.32263,0,1,0-4.32251,4.32262A4.32265,4.32265,0,0,0,124.7292,372.02923Z" style="         fill: #383a48;       "/>
      <path d="M103.3753,372.02923a4.32274,4.32274,0,1,0-4.32274,4.32262A4.32269,4.32269,0,0,0,103.3753,372.02923Z" style="         fill: #383a48;       "/>
      <path d="M146.08332,350.67522a4.32262,4.32262,0,1,0-4.3225,4.32262A4.32264,4.32264,0,0,0,146.08332,350.67522Z" style="         fill: #383a48;       "/>
      <path d="M124.7292,350.67522a4.32263,4.32263,0,1,0-4.32251,4.32262A4.32265,4.32265,0,0,0,124.7292,350.67522Z" style="         fill: #383a48;       "/>
      <path d="M103.3753,350.67522a4.32274,4.32274,0,1,0-4.32274,4.32262A4.32269,4.32269,0,0,0,103.3753,350.67522Z" style="         fill: #383a48;       "/>
      <path d="M124.7292,329.32121a4.32263,4.32263,0,1,0-4.32251,4.32262A4.32265,4.32265,0,0,0,124.7292,329.32121Z" style="         fill: #383a48;       "/>
      <path d="M103.3753,329.32121a4.32274,4.32274,0,1,0-4.32274,4.32262A4.32269,4.32269,0,0,0,103.3753,329.32121Z" style="         fill: #383a48;       "/>
      <path d="M103.3753,307.96708a4.32274,4.32274,0,1,0-4.32274,4.32274A4.32267,4.32267,0,0,0,103.3753,307.96708Z" style="         fill: #383a48;       "/>
      <path d="M638.04213,414.73725a4.32269,4.32269,0,1,0-4.32274,4.32274A4.32268,4.32268,0,0,0,638.04213,414.73725Z" style="         fill: #383a48;       "/>
      <path d="M616.688,414.73725a4.32268,4.32268,0,1,0-4.32262,4.32274A4.32257,4.32257,0,0,0,616.688,414.73725Z" style="         fill: #383a48;       "/>
      <path d="M595.334,414.73725a4.32263,4.32263,0,1,0-4.32251,4.32274A4.32255,4.32255,0,0,0,595.334,414.73725Z" style="         fill: #383a48;       "/>
      <path d="M573.97986,414.73725a4.32262,4.32262,0,1,0-4.3225,4.32274A4.32255,4.32255,0,0,0,573.97986,414.73725Z" style="         fill: #383a48;       "/>
      <path d="M552.626,414.73725a4.32274,4.32274,0,1,0-4.32274,4.32274A4.3226,4.3226,0,0,0,552.626,414.73725Z" style="         fill: #383a48;       "/>
      <path d="M531.27208,414.73725a4.32274,4.32274,0,1,0-4.32274,4.32274A4.32275,4.32275,0,0,0,531.27208,414.73725Z" style="         fill: #383a48;       "/>
      <path d="M509.918,414.73725a4.32263,4.32263,0,1,0-4.32274,4.32274A4.32275,4.32275,0,0,0,509.918,414.73725Z" style="         fill: #383a48;       "/>
      <path d="M488.56382,414.73725a4.32262,4.32262,0,1,0-4.32274,4.32274A4.3226,4.3226,0,0,0,488.56382,414.73725Z" style="         fill: #383a48;       "/>
      <path d="M467.20993,414.73725a4.32274,4.32274,0,1,0-4.32274,4.32274A4.32261,4.32261,0,0,0,467.20993,414.73725Z" style="         fill: #383a48;       "/>
      <path d="M445.8558,414.73725a4.32262,4.32262,0,1,0-4.32251,4.32274A4.32255,4.32255,0,0,0,445.8558,414.73725Z" style="         fill: #383a48;       "/>
      <path d="M424.50168,414.73725a4.32263,4.32263,0,1,0-4.32251,4.32274A4.32256,4.32256,0,0,0,424.50168,414.73725Z" style="         fill: #383a48;       "/>
      <path d="M403.14778,414.73725A4.32274,4.32274,0,1,0,398.825,419.06,4.3226,4.3226,0,0,0,403.14778,414.73725Z" style="         fill: #383a48;       "/>
      <path d="M638.04213,393.38324a4.32269,4.32269,0,1,0-4.32274,4.32262A4.32277,4.32277,0,0,0,638.04213,393.38324Z" style="         fill: #383a48;       "/>
      <path d="M616.688,393.38324a4.32268,4.32268,0,1,0-4.32262,4.32262A4.32267,4.32267,0,0,0,616.688,393.38324Z" style="         fill: #383a48;       "/>
      <path d="M595.334,393.38324a4.32263,4.32263,0,1,0-4.32251,4.32262A4.32264,4.32264,0,0,0,595.334,393.38324Z" style="         fill: #383a48;       "/>
      <path d="M573.97986,393.38324a4.32262,4.32262,0,1,0-4.3225,4.32262A4.32264,4.32264,0,0,0,573.97986,393.38324Z" style="         fill: #383a48;       "/>
      <path d="M552.626,393.38324a4.32274,4.32274,0,1,0-4.32274,4.32262A4.32269,4.32269,0,0,0,552.626,393.38324Z" style="         fill: #383a48;       "/>
      <path d="M531.27208,393.38324a4.32274,4.32274,0,1,0-4.32274,4.32262A4.32285,4.32285,0,0,0,531.27208,393.38324Z" style="         fill: #383a48;       "/>
      <path d="M509.918,393.38324a4.32263,4.32263,0,1,0-4.32274,4.32262A4.32285,4.32285,0,0,0,509.918,393.38324Z" style="         fill: #383a48;       "/>
      <path d="M488.56382,393.38324a4.32262,4.32262,0,1,0-4.32274,4.32262A4.32269,4.32269,0,0,0,488.56382,393.38324Z" style="         fill: #383a48;       "/>
      <path d="M467.20993,393.38324a4.32274,4.32274,0,1,0-4.32274,4.32262A4.3227,4.3227,0,0,0,467.20993,393.38324Z" style="         fill: #383a48;       "/>
      <path d="M445.8558,393.38324a4.32262,4.32262,0,1,0-4.32251,4.32262A4.32264,4.32264,0,0,0,445.8558,393.38324Z" style="         fill: #383a48;       "/>
      <path d="M424.50168,393.38324a4.32263,4.32263,0,1,0-4.32251,4.32262A4.32265,4.32265,0,0,0,424.50168,393.38324Z" style="         fill: #383a48;       "/>
      <path d="M403.14778,393.38324a4.32274,4.32274,0,1,0-4.32274,4.32262A4.32269,4.32269,0,0,0,403.14778,393.38324Z" style="         fill: #383a48;       "/>
      <path d="M638.04213,372.02923a4.32269,4.32269,0,1,0-4.32274,4.32262A4.32277,4.32277,0,0,0,638.04213,372.02923Z" style="         fill: #383a48;       "/>
      <path d="M616.688,372.02923a4.32268,4.32268,0,1,0-4.32262,4.32262A4.32267,4.32267,0,0,0,616.688,372.02923Z" style="         fill: #383a48;       "/>
      <path d="M595.334,372.02923a4.32263,4.32263,0,1,0-4.32251,4.32262A4.32264,4.32264,0,0,0,595.334,372.02923Z" style="         fill: #383a48;       "/>
      <path d="M573.97986,372.02923a4.32262,4.32262,0,1,0-4.3225,4.32262A4.32264,4.32264,0,0,0,573.97986,372.02923Z" style="         fill: #383a48;       "/>
      <path d="M552.626,372.02923a4.32274,4.32274,0,1,0-4.32274,4.32262A4.32269,4.32269,0,0,0,552.626,372.02923Z" style="         fill: #383a48;       "/>
      <path d="M531.27208,372.02923a4.32274,4.32274,0,1,0-4.32274,4.32262A4.32285,4.32285,0,0,0,531.27208,372.02923Z" style="         fill: #383a48;       "/>
      <path d="M509.918,372.02923a4.32263,4.32263,0,1,0-4.32274,4.32262A4.32285,4.32285,0,0,0,509.918,372.02923Z" style="         fill: #383a48;       "/>
      <path d="M488.56382,372.02923a4.32262,4.32262,0,1,0-4.32274,4.32262A4.32269,4.32269,0,0,0,488.56382,372.02923Z" style="         fill: #383a48;       "/>
      <path d="M467.20993,372.02923a4.32274,4.32274,0,1,0-4.32274,4.32262A4.3227,4.3227,0,0,0,467.20993,372.02923Z" style="         fill: #383a48;       "/>
      <path d="M445.8558,372.02923a4.32262,4.32262,0,1,0-4.32251,4.32262A4.32264,4.32264,0,0,0,445.8558,372.02923Z" style="         fill: #383a48;       "/>
      <path d="M424.50168,372.02923a4.32263,4.32263,0,1,0-4.32251,4.32262A4.32265,4.32265,0,0,0,424.50168,372.02923Z" style="         fill: #383a48;       "/>
      <path d="M403.14778,372.02923a4.32274,4.32274,0,1,0-4.32274,4.32262A4.32269,4.32269,0,0,0,403.14778,372.02923Z" style="         fill: #383a48;       "/>
      <path d="M638.04213,350.67522a4.32269,4.32269,0,1,0-4.32274,4.32262A4.32277,4.32277,0,0,0,638.04213,350.67522Z" style="         fill: #383a48;       "/>
      <path d="M616.688,350.67522a4.32268,4.32268,0,1,0-4.32262,4.32262A4.32267,4.32267,0,0,0,616.688,350.67522Z" style="         fill: #383a48;       "/>
      <path d="M595.334,350.67522a4.32263,4.32263,0,1,0-4.32251,4.32262A4.32264,4.32264,0,0,0,595.334,350.67522Z" style="         fill: #383a48;       "/>
      <path d="M638.04213,329.32121a4.32269,4.32269,0,1,0-4.32274,4.32262A4.32277,4.32277,0,0,0,638.04213,329.32121Z" style="         fill: #383a48;       "/>
      <path d="M616.688,329.32121a4.32268,4.32268,0,1,0-4.32262,4.32262A4.32267,4.32267,0,0,0,616.688,329.32121Z" style="         fill: #383a48;       "/>
      <path d="M638.04213,307.96708a4.32269,4.32269,0,1,0-4.32274,4.32274A4.32274,4.32274,0,0,0,638.04213,307.96708Z" style="         fill: #383a48;       "/>
    </g>
  </g>

      </g>
    </g>
</g>

<!-- ITEM 1 -->
<g>
    <defs>
        
        <clipPath id="clip-path-id-viewbox-item-1">
            <rect x="0.0" y="0.0" width="158.49466" height="84.40984"/>
        </clipPath>
    </defs>
    <g transform="translate(511.0 478.0) rotate(0.0 96.0 51.5) scale(1.2113972798831203 1.2202368823350453)">
      <g clip-path="url(#clip-path-id-viewbox-item-1)" transform="translate(-0.0 -0.0)">
      
  
  <g>
    <path d="M153.49453,4.9975v.17211A74.04759,74.04759,0,0,1,148.229,32.69035,74.26,74.26,0,0,1,131.7446,57.66464c-.96705.97755-1.97765,1.92361-2.99822,2.84763a74.25635,74.25635,0,0,1-98.99363,0A74.37471,74.37471,0,0,1,10.27011,32.69035,74.09047,74.09047,0,0,1,5.0046,5.16961V4.9975Z" style="         fill: #383a47;       "/>
    <path d="M153.49453,4.9975v.17211A74.04759,74.04759,0,0,1,148.229,32.69035H10.27011A74.09047,74.09047,0,0,1,5.0046,5.16961V4.9975Z" style="         fill: #f3f6e7;       "/>
    <path d="M79.247,84.41A79.11683,79.11683,0,0,1,26.41792,64.23371,79.34845,79.34845,0,0,1,0,5.1673V4.99982a4.99993,4.99993,0,0,1,5-5H153.49507a4.99993,4.99993,0,0,1,5,5V5.1673a78.72552,78.72552,0,0,1-23.21093,56.03223c-1.05469,1.0542-2.13477,2.07519-3.21094,3.03662A79.1136,79.1136,0,0,1,79.247,84.41ZM10.1689,9.99982a69.357,69.357,0,0,0,22.917,46.78125,69.25142,69.25142,0,0,0,92.32227.00049c.94043-.84082,1.88476-1.7334,2.80664-2.65479A68.72774,68.72774,0,0,0,148.33,9.99982Z" style="         fill: #383a47;       "/>
  </g>

      </g>
    </g>
</g>

<!-- ITEM 2 -->
<g>
    <defs>
        
        <clipPath id="clip-path-id-viewbox-item-2">
            <rect x="0.0" y="0.0" width="393.10014" height="111.95722"/>
        </clipPath>
    </defs>
    <g transform="translate(435.0 326.0) rotate(0.0 171.5 49.0) scale(0.872551202856351 0.8753343464584061)">
      <g clip-path="url(#clip-path-id-viewbox-item-2)" transform="translate(-0.0 -0.0)">
      
  
  <g>
    <g>
      <circle cx="55.97861" cy="55.97861" r="55.97861" style="         fill: #383a47;       "/>
      <circle cx="40.40162" cy="43.40012" r="26.82275" style="         fill: #f3f6e7;       "/>
      <circle cx="72.22245" cy="79.96914" r="15.49406" style="         fill: #f3f6e7;       "/>
    </g>
    <g>
      <path d="M337.12048,0a55.97861,55.97861,0,1,0,55.97966,55.97861A56.04185,56.04185,0,0,0,337.12048,0Z" style="         fill: #383a47;       "/>
      <circle cx="321.54389" cy="43.40012" r="26.82275" style="         fill: #f3f6e7;       "/>
      <circle cx="353.36473" cy="79.96914" r="15.49406" style="         fill: #f3f6e7;       "/>
    </g>
  </g>

      </g>
    </g>
</g>

<!-- ITEM 3 -->
<g>
    <defs>
        
        <clipPath id="clip-path-id-viewbox-item-3">
            <rect x="0.0" y="0.0" width="266.412" height="266.412"/>
        </clipPath>
    </defs>
    <g transform="translate(458.0 428.0) rotate(0.0 22.0 22.0) scale(0.16515772562797473 0.16515772562797473)">
      <g clip-path="url(#clip-path-id-viewbox-item-3)" transform="translate(-0.0 -0.0)">
      <title>circle_2 copy</title><g id="Layer_2-i3" data-name="Layer 2"><g id="circle_2_copy-i3" data-name="circle_2 copy"><circle cx="133.206" cy="133.206" r="128.206" fill="#eebed3"/><path d="M133.206,266.412C59.755,266.412,0,206.656,0,133.206S59.755,0,133.206,0,266.412,59.756,266.412,133.206,206.656,266.412,133.206,266.412Zm0-256.412A123.206,123.206,0,1,0,256.412,133.206,123.346,123.346,0,0,0,133.206,10Z" fill="#eebed3"/></g></g>
      </g>
    </g>
</g>

<!-- ITEM 4 -->
<g>
    <defs>
        
        <clipPath id="clip-path-id-viewbox-item-4">
            <rect x="0.0" y="0.0" width="266.412" height="266.412"/>
        </clipPath>
    </defs>
    <g transform="translate(713.0 429.0) rotate(0.0 22.5 22.5) scale(0.1689113103013378 0.1689113103013378)">
      <g clip-path="url(#clip-path-id-viewbox-item-4)" transform="translate(-0.0 -0.0)">
      <title>circle_2 copy</title><g id="Layer_2-i4" data-name="Layer 2"><g id="circle_2_copy-i4" data-name="circle_2 copy"><circle cx="133.206" cy="133.206" r="128.206" fill="#eebed3"/><path d="M133.206,266.412C59.755,266.412,0,206.656,0,133.206S59.755,0,133.206,0,266.412,59.756,266.412,133.206,206.656,266.412,133.206,266.412Zm0-256.412A123.206,123.206,0,1,0,256.412,133.206,123.346,123.346,0,0,0,133.206,10Z" fill="#eebed3"/></g></g>
      </g>
    </g>
</g>

              </svg>