<svg width="115" height="28" viewBox="0 0 115 28" fill="none" xmlns="http://www.w3.org/2000/svg">
<g clip-path="url(#clip0_562_1383)">
<path d="M46.5591 8.04578C43.9122 8.04578 42.0966 8.89891 40.7622 10.7977C39.7166 9.13516 37.5859 8.04578 35.2672 8.04578C33.2066 8.04578 31.8416 8.60141 30.4766 10.0408V9.94453C30.4766 9.43266 30.2797 8.94703 29.9341 8.58391C29.5841 8.22516 29.1116 8.02391 28.6172 8.02391C28.1272 8.02391 27.6547 8.22516 27.3047 8.58391C26.9547 8.94703 26.7578 9.43266 26.7578 9.94453V25.7908C26.7622 26.3333 26.9722 26.8539 27.3441 27.2389C27.7159 27.6239 28.2191 27.8383 28.7441 27.8383C29.2691 27.8383 29.7766 27.6239 30.1484 27.2389C30.5203 26.8539 30.7303 26.3333 30.7303 25.7908V16.8702C30.7303 13.4445 32.0078 11.852 34.7509 11.852C37.1922 11.852 38.4303 13.4183 38.4303 16.507V25.7908C38.4303 26.3333 38.6403 26.8539 39.0122 27.2389C39.3841 27.6239 39.8916 27.8383 40.4166 27.8383C40.9416 27.8383 41.4447 27.6239 41.8166 27.2389C42.1884 26.8539 42.3984 26.3333 42.4028 25.7908V16.8352C42.4028 13.3395 43.5578 11.8389 46.2659 11.8389C48.8122 11.8389 50.1028 13.5364 50.1028 16.8877V25.7777C50.1028 26.3245 50.3128 26.8452 50.6847 27.2302C51.0566 27.6108 51.5597 27.8295 52.0847 27.8295C52.6097 27.8295 53.1172 27.6108 53.4891 27.2258C53.8609 26.8452 54.0666 26.3245 54.0666 25.7777V16.0345C54.0797 11.0339 51.2709 8.04578 46.5591 8.04578Z" fill="#94A3B8"/>
<path d="M77.4424 8.04578C74.7955 8.04578 72.9799 8.89891 71.6455 10.7977C70.5999 9.13516 68.4693 8.04578 66.1505 8.04578C64.0899 8.04578 62.7293 8.60141 61.3643 10.0408V9.94453C61.3643 9.43266 61.1674 8.94703 60.8174 8.58391C60.4674 8.22516 59.9949 8.02391 59.5049 8.02391C59.0105 8.02391 58.538 8.22516 58.188 8.58391C57.8424 8.94703 57.6455 9.43266 57.6455 9.94453V25.7908C57.6455 26.3333 57.8555 26.8539 58.2274 27.2389C58.5993 27.6239 59.1024 27.8383 59.6318 27.8383C60.1568 27.8383 60.6599 27.6239 61.0318 27.2389C61.4036 26.8539 61.6136 26.3333 61.6136 25.7908V16.8702C61.6136 13.4445 62.8955 11.852 65.643 11.852C68.0799 11.852 69.3136 13.4183 69.3136 16.507V25.7908C69.318 26.3333 69.528 26.8539 69.8999 27.2389C70.2718 27.6239 70.7749 27.8383 71.2999 27.8383C71.8249 27.8383 72.3324 27.6239 72.7043 27.2389C73.0761 26.8539 73.2861 26.3333 73.2861 25.7908V16.8352C73.2861 13.3395 74.4411 11.8389 77.1536 11.8389C79.6955 11.8389 80.9861 13.5364 80.9861 16.8877V25.7777C80.9861 26.0533 81.0343 26.3202 81.1349 26.5739C81.2355 26.8233 81.3843 27.0508 81.5724 27.2433C81.7605 27.4358 81.9793 27.5889 82.2243 27.6895C82.4693 27.7902 82.7318 27.8427 82.9943 27.8383C83.5193 27.8383 84.0224 27.6239 84.3943 27.2389C84.7661 26.8539 84.9761 26.3333 84.9805 25.7908V16.0477C84.9586 11.0339 82.1499 8.04578 77.4424 8.04578Z" fill="#94A3B8"/>
<path d="M102.997 9.97953V10.5483C101.605 8.91641 99.6061 8.06328 97.1605 8.06328C91.7136 8.06328 87.6055 12.4602 87.6055 18.2964C87.6055 23.6733 91.858 27.8995 97.2698 27.8995C99.6367 27.8995 101.667 26.9545 102.979 25.2702V25.8827C102.979 26.1539 103.032 26.4208 103.132 26.6702C103.233 26.9195 103.377 27.1427 103.561 27.3352C103.745 27.5233 103.968 27.6764 104.209 27.777C104.449 27.882 104.707 27.9345 104.965 27.9345C105.49 27.9345 105.998 27.7158 106.37 27.3352C106.742 26.9502 106.947 26.4252 106.947 25.8827V9.98828C106.947 9.48078 106.75 8.99078 106.405 8.63203C106.055 8.27328 105.582 8.06766 105.088 8.06766H104.834C104.344 8.07641 103.88 8.27766 103.535 8.63641C103.194 8.99078 103.001 9.47641 102.997 9.97953ZM103.058 18.0164C103.067 19.6177 102.459 21.1533 101.369 22.2908C100.28 23.4283 98.8011 24.0758 97.2523 24.0845C94.1723 24.0845 91.5736 21.3064 91.5736 18.0164C91.5736 14.617 94.1198 11.8695 97.2523 11.8695C100.564 11.852 103.071 14.5033 103.071 18.0164H103.058Z" fill="#94A3B8"/>
<path d="M21.3198 21.2319C20.6461 21.1356 20.1298 21.5075 19.408 21.9975C17.9905 23.1175 16.2667 23.7431 14.4817 23.7869C12.128 23.87 9.83108 23.0213 8.05921 21.42C6.46233 19.95 5.37733 17.9769 4.97483 15.8025C4.25296 11.6856 5.99858 6.65437 11.2661 4.69437C12.303 4.34 13.388 4.17813 14.4773 4.22187C16.468 4.30937 18.3755 5.06188 19.9111 6.36563C20.3048 6.69375 20.8036 6.85125 21.3067 6.79875C21.8098 6.75063 22.2736 6.50125 22.5973 6.10313C22.8292 5.8275 22.978 5.49063 23.0305 5.13187C23.083 4.77313 23.0392 4.41 22.8948 4.0775C21.9498 1.84625 17.2423 0.376251 15.6148 0.1925C15.068 0.11375 14.5211 0.0743752 13.9698 0.0743752C10.8067 0.0918752 7.75733 1.30375 5.39483 3.4825C2.74796 5.8975 1.11608 9.28375 0.844832 12.9194C0.573583 16.5594 1.68483 20.16 3.93796 22.9688C5.91546 25.5063 8.72858 27.2038 11.8392 27.7375C12.5436 27.86 13.2611 27.9256 13.9786 27.9256C17.0542 27.93 20.0336 26.7969 22.3742 24.7319C22.6586 24.4737 22.8642 24.1413 22.9692 23.765C23.0742 23.3931 23.0698 22.995 22.9605 22.6231C22.8511 22.2513 22.6367 21.9231 22.3523 21.6737C22.0636 21.42 21.7136 21.2625 21.3373 21.2144L21.3198 21.2319Z" fill="#94A3B8"/>
<path d="M19.7404 11.4276C19.4823 11.4758 19.2417 11.5808 19.0229 11.7295C18.8042 11.8783 18.6161 12.0664 18.4717 12.2939C18.1654 12.762 17.7542 13.1514 17.2686 13.4183C16.7829 13.6851 16.2404 13.8251 15.6936 13.8251C15.1423 13.8251 14.6042 13.6851 14.1186 13.4183C13.6329 13.1514 13.2217 12.762 12.9154 12.2939C12.7667 12.0708 12.5829 11.8783 12.3642 11.7295C12.1454 11.5808 11.9004 11.4801 11.6467 11.432C11.5242 11.4058 11.3973 11.3926 11.2748 11.3926C10.9161 11.3926 10.5617 11.4976 10.2554 11.6901C9.94482 11.8826 9.69544 12.1539 9.52481 12.4864C9.35857 12.8145 9.27981 13.182 9.29731 13.5539C9.31481 13.9258 9.43294 14.2845 9.63419 14.5951C10.3036 15.6189 11.2092 16.4589 12.2679 17.0364C13.3223 17.6183 14.5036 17.9201 15.7023 17.9201C16.8967 17.9201 18.0779 17.6183 19.1323 17.0364C20.1911 16.4589 21.0967 15.6189 21.7661 14.5951C21.9848 14.2583 22.1029 13.8601 22.1029 13.4576C22.1073 13.0508 21.9936 12.657 21.7748 12.3158C21.5604 11.9789 21.2542 11.712 20.8911 11.5545C20.5323 11.397 20.1342 11.3533 19.7492 11.4276H19.7404Z" fill="#94A3B8"/>
<path d="M113.374 24.662C113.374 24.277 113.107 23.892 112.451 23.892H111.554V26.5039H111.965V25.4583H112.42L113.024 26.5039H113.501L112.832 25.4014C112.989 25.362 113.134 25.2658 113.23 25.1302C113.33 24.9989 113.379 24.8327 113.374 24.662ZM111.965 25.1039V24.2552H112.495C112.775 24.2552 112.95 24.3908 112.95 24.6664C112.95 25.012 112.731 25.1039 112.486 25.1039H111.965Z" fill="#94A3B8"/>
<path d="M112.363 22.7414C111.882 22.7414 111.414 22.8858 111.012 23.1658C110.609 23.4414 110.298 23.8352 110.115 24.2945C109.931 24.7539 109.883 25.2614 109.979 25.7514C110.071 26.237 110.303 26.6877 110.644 27.0377C110.985 27.392 111.418 27.6283 111.891 27.7245C112.363 27.8208 112.853 27.7727 113.3 27.5802C113.746 27.392 114.127 27.0683 114.393 26.6527C114.66 26.237 114.8 25.7514 114.8 25.2527C114.8 24.5877 114.542 23.9489 114.087 23.4764C113.628 23.0039 113.011 22.7414 112.363 22.7414ZM112.363 27.4052C111.952 27.4052 111.55 27.2783 111.208 27.042C110.867 26.8058 110.6 26.4689 110.443 26.0752C110.285 25.6814 110.242 25.2527 110.325 24.8327C110.403 24.417 110.6 24.032 110.893 23.7302C111.182 23.4327 111.554 23.227 111.961 23.1439C112.363 23.0608 112.783 23.1045 113.16 23.2664C113.54 23.4283 113.868 23.7039 114.096 24.0583C114.323 24.4127 114.446 24.8283 114.446 25.2527C114.446 25.8258 114.227 26.3727 113.838 26.7752C113.448 27.1777 112.919 27.4052 112.363 27.4052Z" fill="#94A3B8"/>
</g>
<defs>
<clipPath id="clip0_562_1383">
<rect width="114.24" height="28" fill="white" transform="translate(0.717773)"/>
</clipPath>
</defs>
</svg>
