<svg width="129" height="28" viewBox="0 0 129 28" fill="none" xmlns="http://www.w3.org/2000/svg">
<g clip-path="url(#clip0_562_1374)">
<path d="M28.472 11.1944L28.4331 11.0906L24.502 0.836265C24.4224 0.634919 24.2808 0.464116 24.0977 0.348582C23.9611 0.261127 23.8059 0.206894 23.6446 0.190229C23.4832 0.173564 23.3202 0.194931 23.1686 0.252617C23.017 0.310303 22.881 0.402704 22.7716 0.522413C22.6621 0.642122 22.5822 0.785811 22.5383 0.94196L19.8848 9.06567H9.13907L6.48556 0.94196C6.44129 0.786044 6.36121 0.642626 6.2517 0.523146C6.14218 0.403666 6.00626 0.311429 5.85478 0.25379C5.7033 0.196151 5.54044 0.174705 5.3792 0.191163C5.21796 0.207621 5.0628 0.261527 4.92609 0.348582C4.743 0.464116 4.60142 0.634919 4.52185 0.836265L0.592577 11.0924L0.551782 11.1944C-0.0139183 12.6729 -0.0836105 14.2952 0.353211 15.8167C0.790033 17.3382 1.70969 18.6764 2.97351 19.6296L2.98834 19.6408L3.02172 19.6667L9.00185 24.1486L11.9687 26.3904L13.7711 27.7534C13.9826 27.9131 14.2404 27.9995 14.5054 27.9995C14.7705 27.9995 15.0283 27.9131 15.2397 27.7534L17.0421 26.3904L20.009 24.1486L26.0318 19.6408L26.0485 19.6278C27.3122 18.6749 28.232 17.3371 28.6691 15.816C29.1063 14.2948 29.0371 12.6728 28.472 11.1944Z" fill="#94A3B8"/>
<path d="M52.0071 10.6642H56.2312C55.5266 6.17309 51.6381 3.04488 46.5777 3.04488C40.5902 3.04488 36.0972 7.447 36.0972 14.8197C36.0972 22.0608 40.388 26.5519 46.7001 26.5519C52.365 26.5519 56.4203 22.9082 56.4203 17.0097V14.2616H47.1358V17.501H52.4095C52.3427 20.7646 50.1639 22.8303 46.7223 22.8303C42.8913 22.8303 40.2656 19.9598 40.2656 14.7752C40.2656 9.62396 42.9358 6.76462 46.6333 6.76462C49.3925 6.76462 51.2802 8.23879 52.0071 10.6642Z" fill="#94A3B8"/>
<path d="M59.2127 26.2385H63.2569V9.08618H59.2127V26.2385ZM61.2524 6.36035C62.5375 6.36035 63.587 5.37572 63.587 4.17042C63.587 2.96512 62.5375 1.96936 61.2524 1.96936C59.9674 1.96936 58.9067 2.95214 58.9067 4.17042C58.9067 5.3887 59.9489 6.36035 61.245 6.36035H61.2524Z" fill="#94A3B8"/>
<path d="M75.3673 9.08633H71.9814V4.96606H67.9371V9.08633H65.5024V12.2145H67.9371V21.7568C67.9149 24.9851 70.2624 26.578 73.2998 26.4834C74.1089 26.4673 74.9112 26.3317 75.6807 26.081L74.9983 22.9176C74.6118 23.0179 74.2146 23.0708 73.8153 23.0752C72.7973 23.0752 71.9814 22.7173 71.9814 21.0855V12.2053H75.3673V9.08633Z" fill="#94A3B8"/>
<path d="M78.4976 26.2386H92.7201V22.7636H82.6438V3.35649H78.4976V26.2386Z" fill="#94A3B8"/>
<path d="M100.468 26.5854C103.16 26.5854 104.768 25.3227 105.506 23.8819H105.639V26.2387H109.533V14.7531C109.533 10.2175 105.836 8.85458 102.561 8.85458C98.9526 8.85458 96.1822 10.4623 95.2885 13.5905L99.0657 14.1282C99.4662 12.9544 100.607 11.9494 102.589 11.9494C104.467 11.9494 105.495 12.9099 105.495 14.5974V14.6641C105.495 15.8249 104.276 15.8824 101.248 16.205C97.9197 16.5629 94.7359 17.5568 94.7359 21.4231C94.7248 24.7979 97.1928 26.5854 100.468 26.5854ZM101.797 23.6185C100.11 23.6185 98.9025 22.8472 98.9025 21.3619C98.9025 19.808 100.254 19.1608 102.055 18.9031C103.117 18.7584 105.241 18.4895 105.763 18.0668V20.088C105.775 21.9923 104.232 23.613 101.797 23.613V23.6185Z" fill="#94A3B8"/>
<path d="M112.511 26.2385H116.488V23.5349H116.722C117.36 24.7866 118.689 26.5407 121.639 26.5407C125.684 26.5407 128.712 23.3328 128.712 17.6809C128.712 11.9603 125.595 8.85438 121.628 8.85438C118.6 8.85438 117.337 10.6753 116.722 11.9158H116.551V3.35637H112.511V26.2385ZM116.477 17.6586C116.477 14.3209 117.907 12.1717 120.51 12.1717C123.203 12.1717 124.59 14.4618 124.59 17.6586C124.59 20.8554 123.182 23.2215 120.51 23.2215C117.929 23.2215 116.477 20.9871 116.477 17.6586Z" fill="#94A3B8"/>
</g>
<defs>
<clipPath id="clip0_562_1374">
<rect width="128.689" height="28" fill="white" transform="translate(0.0292969)"/>
</clipPath>
</defs>
</svg>
