<svg width="205" height="28" viewBox="0 0 205 28" fill="none" xmlns="http://www.w3.org/2000/svg">
<g clip-path="url(#clip0_562_1362)">
<path d="M78.6752 3.94877V11.6308H69.988V3.94877H65.1777V24.0513H69.988V15.9385H78.6752V24.0513H83.4136V3.94877H83.1982H78.6752Z" fill="#94A3B8"/>
<path d="M100.932 3.94881L95.9777 11.918L90.9521 3.94881H85.3521L93.6085 17.0873V24.0514H98.3469V17.0873L106.603 3.94881H106.173H100.932Z" fill="#94A3B8"/>
<path d="M121.968 3.94881V18.6668C121.968 19.2411 121.537 19.6719 120.963 19.6719H113.28V3.94881H108.47V24.0514H122.614C123.906 24.0514 124.911 23.6924 125.629 22.9744C126.347 22.2565 126.706 21.2514 126.706 19.9591V3.94881H126.491H121.968Z" fill="#94A3B8"/>
<path d="M145.373 3.94881H131.229V24.0514H136.039V8.32829H143.721C144.367 8.32829 144.726 8.83086 144.726 9.33342V24.0514H149.537V8.04111C149.537 6.74881 149.178 5.74368 148.46 5.02573C147.598 4.30778 146.593 3.94881 145.373 3.94881Z" fill="#94A3B8"/>
<path d="M167.988 3.94881H153.844V24.0514H167.988C169.208 24.0514 170.213 23.6924 171.003 22.9744C171.721 22.2565 172.08 21.2514 172.08 19.9591V8.04111C172.08 6.74881 171.721 5.74368 171.003 5.02573C170.285 4.30778 169.28 3.94881 167.988 3.94881ZM167.342 9.33342V18.6668C167.342 19.2411 166.911 19.6719 166.337 19.6719H158.654V8.32829H166.265C166.911 8.32829 167.342 8.75906 167.342 9.33342Z" fill="#94A3B8"/>
<path d="M180.409 3.94881C179.188 3.94881 178.111 4.30778 177.393 5.02573C176.675 5.74368 176.316 6.74881 176.316 8.04111V24.0514H181.055V17.8052H189.742V24.0514H194.552V3.94881H180.409ZM189.814 8.32829V13.4975H181.127V9.33342C181.127 8.83086 181.486 8.32829 182.132 8.32829H189.814Z" fill="#94A3B8"/>
<path d="M204.029 3.94881H199.219V24.0514H204.029V3.94881Z" fill="#94A3B8"/>
<path d="M27.8446 28C42.9215 28 55.1984 21.7538 55.1984 14C55.1266 6.24615 42.9215 0 27.8446 0C12.6958 0 0.490723 6.24615 0.490723 14C0.490723 21.7538 12.6958 28 27.8446 28ZM32.942 21.1077C32.5112 22.1846 31.7215 24.4103 29.9266 25.3436C29.3523 25.6308 28.7061 25.7744 28.1317 25.7744C27.9882 25.7744 27.9164 25.7744 27.8446 25.7744C22.8189 25.7744 18.0805 25.0564 14.2035 23.9077L14.06 23.8359C13.701 23.6923 13.4856 23.5487 13.4856 23.3333C13.4856 23.1179 13.5574 23.0462 13.701 22.9026C13.7728 22.8308 13.8446 22.759 13.9164 22.6872C14.8497 21.8974 17.5779 19.8872 22.7471 17.9487C24.542 17.2308 26.8394 16.3692 29.2087 15.8667C30.501 15.5795 35.6702 14.7897 32.942 21.1077ZM46.7984 7.0359C46.8702 6.89231 47.0138 6.74872 47.2292 6.67692C47.3728 6.67692 47.5164 6.67692 47.8035 6.89231C51.0343 8.90257 52.901 11.3436 52.901 14C52.901 18.8103 46.7266 22.9744 37.8241 24.7692C37.2497 24.9128 36.8907 24.9128 36.7471 24.7692C36.6753 24.6974 36.6035 24.5538 36.7471 24.3385C36.8189 24.2667 36.8907 24.1231 36.9625 23.9795C41.7728 18.3077 45.5061 9.90769 46.5112 7.46667C46.6548 7.32308 46.7266 7.10769 46.7984 7.0359ZM22.7471 6.82051C23.1779 5.74359 23.9676 3.51795 25.7625 2.58462C26.3369 2.36923 27.0548 2.22564 27.6292 2.22564C27.7728 2.22564 27.8446 2.22564 27.9164 2.22564C32.942 2.22564 37.6805 2.94359 41.5574 4.09231L41.701 4.1641C42.06 4.30769 42.2753 4.45128 42.2753 4.66667C42.2753 4.88205 42.2035 4.95385 42.06 5.09744C41.9882 5.16923 41.9164 5.24103 41.8446 5.31282C40.9112 6.10256 38.183 8.04103 33.0856 10.0513C31.2907 10.7692 28.9933 11.6308 26.6241 12.1333C25.1882 12.3487 20.0189 13.1385 22.7471 6.82051ZM17.7933 3.23077C18.3676 3.08718 18.7266 3.08718 18.8702 3.23077C18.942 3.30256 18.942 3.44615 18.8702 3.66154C18.7984 3.73333 18.7266 3.87692 18.6548 4.02051C13.8446 9.69231 10.1112 18.0923 9.10611 20.5333C9.03431 20.6769 8.96252 20.8923 8.89072 20.9641C8.81893 21.1077 8.67534 21.2513 8.45995 21.3231C8.31636 21.3231 8.17277 21.3231 7.88559 21.1077C4.65483 19.0974 2.78816 16.6564 2.78816 14C2.71636 9.18974 8.96252 5.02564 17.7933 3.23077Z" fill="#94A3B8"/>
</g>
<defs>
<clipPath id="clip0_562_1362">
<rect width="203.538" height="28" fill="white" transform="translate(0.490723)"/>
</clipPath>
</defs>
</svg>
