<svg width="104" height="28" viewBox="0 0 104 28" fill="none" xmlns="http://www.w3.org/2000/svg">
<g clip-path="url(#clip0_562_1347)">
<mask id="mask0_562_1347" style="mask-type:luminance" maskUnits="userSpaceOnUse" x="0" y="0" width="104" height="28">
<path d="M103.441 0H0.191406V28H103.441V0Z" fill="white"/>
</mask>
<g mask="url(#mask0_562_1347)">
<path d="M32.3418 13.4609C32.3418 18.0389 35.2818 21.2309 39.3558 21.2309C43.4298 21.2309 46.3698 18.0389 46.3698 13.4609C46.3698 8.88295 43.4298 5.69095 39.3558 5.69095C35.2818 5.69095 32.3418 8.88295 32.3418 13.4609ZM43.6818 13.4609C43.6818 16.7369 41.8968 18.8579 39.3558 18.8579C36.8148 18.8579 35.0298 16.7369 35.0298 13.4609C35.0298 10.1849 36.8148 8.06395 39.3558 8.06395C41.8968 8.06395 43.6818 10.1849 43.6818 13.4609Z" fill="#94A3B8"/>
<path d="M53.9395 21.231C57.0265 21.231 58.7905 18.627 58.7905 15.498C58.7905 12.369 57.0265 9.76495 53.9395 9.76495C52.5115 9.76495 51.4615 10.332 50.7685 11.151V9.97495H48.2485V24.78H50.7685V19.845C51.4615 20.664 52.5115 21.231 53.9395 21.231ZM50.7055 15.183C50.7055 13.104 51.8815 11.97 53.4355 11.97C55.2625 11.97 56.2495 13.398 56.2495 15.498C56.2495 17.598 55.2625 19.026 53.4355 19.026C51.8815 19.026 50.7055 17.871 50.7055 15.834V15.183Z" fill="#94A3B8"/>
<path d="M65.6104 21.231C67.8154 21.231 69.5584 20.076 70.3354 18.144L68.1724 17.325C67.8364 18.459 66.8494 19.089 65.6104 19.089C63.9934 19.089 62.8594 17.934 62.6704 16.044H70.3984V15.204C70.3984 12.18 68.6974 9.76495 65.5054 9.76495C62.3134 9.76495 60.2554 12.264 60.2554 15.498C60.2554 18.9 62.4604 21.231 65.6104 21.231ZM65.4844 11.886C67.0804 11.886 67.8364 12.936 67.8574 14.154H62.7964C63.1744 12.663 64.1824 11.886 65.4844 11.886Z" fill="#94A3B8"/>
<path d="M72.2896 21H74.8096V14.532C74.8096 12.957 75.9646 12.117 77.0986 12.117C78.4846 12.117 79.0306 13.104 79.0306 14.469V21H81.5506V13.734C81.5506 11.361 80.1646 9.76495 77.8546 9.76495C76.4266 9.76495 75.4396 10.416 74.8096 11.151V9.97495H72.2896V21Z" fill="#94A3B8"/>
<path d="M88.9307 5.92188L83.2188 20.9999H85.8857L87.1667 17.5559H93.6768L94.9788 20.9999H97.6877L91.9757 5.92188H88.9307ZM90.4007 8.90387L92.7947 15.2039H88.0488L90.4007 8.90387Z" fill="#94A3B8"/>
<path d="M102.014 5.96567H99.3257V21.0437H102.014V5.96567Z" fill="#94A3B8"/>
<path d="M26.1838 11.4598C26.8191 9.55317 26.6003 7.46454 25.5845 5.73029C24.0567 3.07029 20.9855 1.70179 17.986 2.34579C16.6516 0.842541 14.7345 -0.0123338 12.7246 -8.3752e-05C9.65859 -0.00708375 6.93821 1.96691 5.99496 4.88416C4.02534 5.28754 2.32521 6.52041 1.33033 8.26779C-0.208791 10.9208 0.142084 14.265 2.19833 16.54C1.56308 18.4467 1.78183 20.5353 2.79771 22.2695C4.32546 24.9295 7.39671 26.298 10.3962 25.654C11.7297 27.1573 13.6477 28.0122 15.6576 27.999C18.7253 28.0069 21.4466 26.0312 22.3898 23.1113C24.3595 22.7079 26.0596 21.475 27.0545 19.7277C28.5918 17.0747 28.2401 13.733 26.1847 11.458L26.1838 11.4598ZM15.6593 26.1694C14.4317 26.1712 13.2426 25.7415 12.3002 24.9549C12.3431 24.9322 12.4175 24.891 12.4656 24.8613L18.0411 21.6413C18.3263 21.4794 18.5013 21.1758 18.4996 20.8477V12.9875L20.856 14.3482C20.8813 14.3604 20.898 14.3849 20.9015 14.4129V20.922C20.898 23.8165 18.5538 26.1633 15.6593 26.1694ZM4.38583 21.3543C3.77071 20.292 3.54934 19.0469 3.76021 17.8385C3.80134 17.863 3.87396 17.9077 3.92559 17.9374L9.50109 21.1574C9.78371 21.3228 10.1337 21.3228 10.4172 21.1574L17.2238 17.2269V19.9482C17.2256 19.9762 17.2125 20.0033 17.1906 20.0208L11.5547 23.2749C9.04433 24.7204 5.83834 23.8612 4.38671 21.3543H4.38583ZM2.91846 9.18392C3.53096 8.11992 4.49784 7.30616 5.64933 6.88354C5.64933 6.93166 5.64671 7.01654 5.64671 7.07604V13.5169C5.64496 13.8442 5.81996 14.1478 6.10434 14.3097L12.911 18.2393L10.5546 19.5999C10.531 19.6157 10.5012 19.6183 10.475 19.6069L4.83821 16.3502C2.33308 14.8994 1.47383 11.6943 2.91758 9.18479L2.91846 9.18392ZM22.2787 13.6893L15.4721 9.75879L17.8285 8.39904C17.8521 8.38329 17.8818 8.38067 17.9081 8.39204L23.5448 11.6462C26.0543 13.096 26.9145 16.3064 25.4646 18.8159C24.8512 19.8782 23.8852 20.6919 22.7346 21.1154V14.482C22.7372 14.1548 22.5631 13.852 22.2796 13.6893H22.2787ZM24.6237 10.1595C24.5826 10.1342 24.51 10.0904 24.4583 10.0607L18.8828 6.84066C18.6002 6.67529 18.2502 6.67529 17.9667 6.84066L11.1601 10.7712V8.04992C11.1583 8.02192 11.1715 7.99479 11.1933 7.97729L16.8292 4.72579C19.3396 3.27766 22.5491 4.13954 23.9963 6.65079C24.608 7.71129 24.8293 8.95292 24.622 10.1595H24.6237ZM9.87909 15.0097L7.52183 13.649C7.49646 13.6368 7.47984 13.6123 7.47634 13.5843V7.07517C7.47809 4.17717 9.82921 1.82866 12.7272 1.83041C13.9531 1.83041 15.1396 2.26091 16.082 3.04491C16.0391 3.06766 15.9656 3.10879 15.9166 3.13854L10.3411 6.35854C10.0558 6.52041 9.88084 6.82317 9.88259 7.15129L9.87909 15.0079V15.0097ZM11.1592 12.2499L14.1911 10.499L17.223 12.249V15.7499L14.1911 17.4999L11.1592 15.7499V12.2499Z" fill="#94A3B8"/>
</g>
</g>
<defs>
<clipPath id="clip0_562_1347">
<rect width="103.442" height="28" fill="white"/>
</clipPath>
</defs>
</svg>
