<svg width="217" height="28" viewBox="0 0 217 28" fill="none" xmlns="http://www.w3.org/2000/svg">
  <g clip-path="url(#clip0_562_1359)">
    <path d="M107.04 11.2562H93.4722V0.842602H89.3673V27.287H93.4722V14.7562H107.04V27.287H111.102V0.842602H107.04M67.0062 0.756184C65.5154 0.712974 62.4907 0.712971 59.8117 0.712971V27.2654H63.9599V17.1975C64.9969 17.1975 67.1358 17.1111 68.8642 17.0679C71.284 17.0247 77.5926 15.8148 77.5494 8.53396C77.6142 0.324085 68.5185 0.756184 67.0062 0.756184ZM66.7901 13.6759H64.0463V4.10495H66.3796C67.4599 4.10495 73.8333 3.62963 74.0278 8.57716C74.287 13.4383 69.2531 13.6759 66.7901 13.6759ZM28.7222 0.712971L28.7655 27.2654H45.4229V23.8086H32.9136V14.7994H41.7716C41.7716 14.0432 41.7284 12.9414 41.7716 11.4938H32.9136V4.25618H45.4229C45.3796 2.1605 45.4229 0.712971 45.4229 0.712971H28.7222ZM4.50313 7.19445C4.50313 2.85186 10.25 2.67902 13.642 5.46605C14.8087 2.11729 14.8951 1.87964 14.8951 1.87964C5.00005 -2.87345 0.484616 3.41359 0.484616 7.4321C0.484616 17.0463 14.1173 14.9938 12.1513 21.7562C11.4599 24.2191 7.07412 25.6234 2.01857 22.5555C1.65128 23.5926 1.04634 24.8457 0.441406 26.0988C7.11733 29.5988 15.7809 27.9136 16.0618 20.6975C16.4507 11.6235 4.50313 12.2716 4.50313 7.19445ZM179.589 8.16667C178.984 0.280873 171.336 0.885809 169.651 0.79939C168.247 0.75618 165.265 0.712971 162.694 0.712971V27.2222H166.843V16.0741C168.247 16.0741 168.701 16.0741 170.818 15.9877L178.38 27.2222H183.413L175.052 15.2963C177.299 14.4753 179.913 12.5525 179.589 8.16667ZM169.413 12.963C168.484 12.963 167.772 12.963 166.843 12.9198V3.95371H169.025C170.062 3.95371 175.506 3.62964 175.981 7.97223C176.565 13.1142 170.537 12.963 169.413 12.963ZM206.963 0.756184H202.167L193.481 27.3086H197.586C198.883 22.5123 199.315 21.1512 199.315 21.1512L210.052 21.108C211.305 24.6512 212.234 27.3518 212.234 27.3518H216.491L206.963 0.756184ZM200.265 18.1049L204.457 4.99074H204.5L208.886 18.0617L200.265 18.1049ZM136.855 1.14441e-05C128.407 1.14441e-05 122.898 6.24383 122.898 14C122.898 21.7562 128.407 28 136.855 28C145.302 28 150.812 21.7562 150.812 14C150.812 6.24383 145.302 1.14441e-05 136.855 1.14441e-05ZM136.855 24.1759C130.654 24.1759 127.154 19.6605 127.154 14C127.154 8.40432 130.654 3.82408 136.855 3.82408C143.012 3.82408 146.555 8.33951 146.555 14C146.555 19.5957 143.056 24.1759 136.855 24.1759Z" fill="#94A3B8" />
  </g>
  <defs>
    <clipPath id="clip0_562_1359">
      <rect width="216.049" height="28" fill="white" transform="translate(0.441406)" />
    </clipPath>
  </defs>
</svg>