<svg width="464" height="464" viewBox="0 0 464 464" fill="none" xmlns="http://www.w3.org/2000/svg">
  <rect width="464" height="464" fill="white" />
  <path d="M360 167.96C360.013 180.241 357.278 192.365 351.992 203.444C346.705 214.524 339.003 224.28 329.452 231.991L109.802 107.261C108.963 106.781 108.185 106.204 107.482 105.536C106.381 104.457 105.507 103.168 104.909 101.748C104.31 100.324 104 98.7944 104 97.2521C104 94.172 105.223 91.2186 107.399 89.0428C109.575 86.8627 112.528 85.6394 115.608 85.6394H277.719C299.542 85.6394 320.469 94.3118 335.901 109.752C351.332 125.187 360 146.128 360 167.96Z" fill="#18B4F4" />
  <path d="M360 296.019C360.004 306.832 357.877 317.54 353.743 327.528C349.61 337.519 343.551 346.598 335.909 354.244C328.268 361.89 319.194 367.954 309.211 372.091C299.227 376.233 288.523 378.361 277.719 378.361H115.608C113.31 378.334 111.073 377.631 109.177 376.333C107.285 375.036 105.813 373.205 104.961 371.073C104.105 368.941 103.899 366.604 104.376 364.354C104.847 362.108 105.975 360.05 107.617 358.442C108.273 357.787 109.007 357.215 109.802 356.739L196.246 307.653L329.435 232.009C338.981 239.72 346.683 249.472 351.974 260.547C357.265 271.622 360.004 283.746 360 296.019Z" fill="#FD6B3C" />
  <path d="M329.452 231.991L196.247 307.653L109.806 356.739C108.976 357.202 108.207 357.765 107.521 358.425C140.481 324.605 158.909 279.224 158.87 231.991C158.931 184.75 140.507 139.36 107.539 105.536C108.242 106.204 109.02 106.781 109.863 107.261L329.452 231.991Z" fill="#A97FF2" />
</svg>
