<svg xmlns="http://www.w3.org/2000/svg" fill="none" viewBox="0 0 72 72"><path fill="#fff" d="M64 .227H8a8 8 0 0 0-8 8v56a8 8 0 0 0 8 8h56a8 8 0 0 0 8-8v-56a8 8 0 0 0-8-8Z"/><path fill="url(#a)" fill-rule="evenodd" d="m38.492 18.989 11.511 6.251L39.367 11a7.93 7.93 0 0 0-.875 7.989Z" clip-rule="evenodd"/><path fill="url(#b)" fill-rule="evenodd" d="M33.29 42.175a2.624 2.624 0 1 1 0 5.248 2.624 2.624 0 0 1 0-5.248Z" clip-rule="evenodd"/><path fill="url(#c)" fill-rule="evenodd" d="m25.278 13.088 32.236 17.494a1.562 1.562 0 0 1 0 2.81 25.063 25.063 0 0 1-7.896 3.08l-6.706 13.762s-2.123 4.828-7.966 2.974c2.45-2.45 5.412-4.665 5.412-8.432a7.08 7.08 0 0 0-14.159 0c0 4.921 4.852 6.997 7.546 10.414a4.432 4.432 0 0 1-.385 5.587c-3.347-3.312-9.82-8.899-12.479-12.56a10.613 10.613 0 0 1-2.274-6.474 12.187 12.187 0 0 1 8.607-11.033 14.054 14.054 0 0 1 4.525-.548c2.13.162 4.2.786 6.065 1.831 2.857 1.68 4.245 1.236 6.216-.42 1.166-.956 2.438-4.07.467-4.793a14.166 14.166 0 0 0-1.971-.49c-3.663-.712-10.065-1.388-12.421-2.73-3.744-2.063-6.263-6.32-4.817-10.472Z" clip-rule="evenodd"/><path fill="url(#d)" fill-rule="evenodd" d="M40.3 44.81c1.492-7.849-6.473-15.336-12.584-14.216l.408-.094c-.327.07-.642.152-.945.245a12.188 12.188 0 0 0-8.607 11.033 10.613 10.613 0 0 0 2.332 6.473c2.66 3.662 9.132 9.249 12.48 12.561a4.431 4.431 0 0 0 .385-5.587c-2.753-3.405-7.605-5.493-7.605-10.403a7.08 7.08 0 0 1 14.159 0l-.023-.011Z" clip-rule="evenodd"/><path fill="url(#e)" fill-rule="evenodd" d="M25.278 13.088 49.77 26.43l.7.385c.583.455 1.166 1.364.408 3.044-1.166 2.507-5.831 4.933-11.208 3.032 1.68.49 2.822-.07 4.292-1.306 1.166-.956 2.437-4.07.466-4.794a14.152 14.152 0 0 0-1.97-.49c-3.663-.71-10.066-1.387-12.422-2.728-3.685-2.076-6.204-6.333-4.758-10.485Z" clip-rule="evenodd"/><path fill="url(#f)" fill-rule="evenodd" d="M25.278 13.088c2.53 9.33 17.937 10.1 25.658 13.995L25.278 13.088Z" clip-rule="evenodd"/><path fill="url(#g)" fill-rule="evenodd" d="M33.71 55.225c-2.694-3.405-7.546-5.493-7.546-10.403a7.08 7.08 0 0 1 6.205-6.998A10.24 10.24 0 0 0 22.164 48.03c-.001.69.07 1.377.21 2.052 2.228 2.52 5.447 5.493 8.164 8.012 1.061.992 2.04 1.925 2.846 2.718a4.875 4.875 0 0 0 1.166-2.764 4.269 4.269 0 0 0-.84-2.823Z" clip-rule="evenodd"/><path fill="url(#h)" fill-rule="evenodd" d="M40.265 45.65c.036-.278.056-.559.058-.84 1.47-7.849-6.496-15.336-12.608-14.216a14.567 14.567 0 0 1 3.99-.397c8.012.327 10.25 8.887 8.56 15.453Z" clip-rule="evenodd"/><path fill="url(#i)" fill-rule="evenodd" d="M16.636 28.308a2.648 2.648 0 0 1 2.636 2.647v2.636h-2.636A2.636 2.636 0 0 1 14 30.955a2.647 2.647 0 0 1 2.636-2.647Z" clip-rule="evenodd"/><defs><linearGradient id="a" x1="33.652" x2="56.558" y1="18.126" y2="18.126" gradientUnits="userSpaceOnUse"><stop stop-color="#FBAA19"/><stop offset="1" stop-color="#EF3E23"/></linearGradient><linearGradient id="b" x1="32.392" x2="34.188" y1="47.248" y2="42.338" gradientUnits="userSpaceOnUse"><stop stop-color="#F78D1E"/><stop offset="1" stop-color="#F37121"/></linearGradient><linearGradient id="c" x1="18.152" x2="46.061" y1="48.939" y2="19.024" gradientUnits="userSpaceOnUse"><stop stop-color="#FEBE2D"/><stop offset="1" stop-color="#F04E23"/></linearGradient><linearGradient id="d" x1="37.874" x2="22.432" y1="31.457" y2="55.225" gradientUnits="userSpaceOnUse"><stop stop-color="#EA4425"/><stop offset="1" stop-color="#FDBB27"/></linearGradient><linearGradient id="e" x1="14.28" x2="63.031" y1="23.328" y2="23.328" gradientUnits="userSpaceOnUse"><stop stop-color="#F47920"/><stop offset="1" stop-color="#E93825"/></linearGradient><linearGradient id="f" x1="-11.472" x2="87.721" y1="20.074" y2="20.074" gradientUnits="userSpaceOnUse"><stop stop-color="#FDCA0B"/><stop offset="1" stop-color="#F5841F"/></linearGradient><linearGradient id="g" x1="23.96" x2="34.282" y1="32.075" y2="68.078" gradientUnits="userSpaceOnUse"><stop stop-color="#E73C25"/><stop offset="1" stop-color="#FAA21B"/></linearGradient><linearGradient id="h" x1="-45.912" x2="101.331" y1="37.918" y2="37.918" gradientUnits="userSpaceOnUse"><stop stop-color="#FDBA12"/><stop offset="1" stop-color="#F7921E"/></linearGradient><linearGradient id="i" x1="14.093" x2="19.61" y1="30.5" y2="31.48" gradientUnits="userSpaceOnUse"><stop stop-color="#FEBE2D"/><stop offset="1" stop-color="#F04E23"/></linearGradient></defs></svg>
