<svg width="72" height="73" viewBox="0 0 72 73" fill="none" xmlns="http://www.w3.org/2000/svg">
<rect y="0.226562" width="72" height="72" rx="8" fill="white"/>
<path d="M30.3634 44.1652C29.3236 43.13 28.4986 41.8997 27.9356 40.5448C27.3726 39.1898 27.0828 37.7371 27.0828 36.2699C27.0828 34.8026 27.3726 33.3499 27.9356 31.995C28.4986 30.6401 29.3236 29.4097 30.3634 28.3745C31.188 27.5506 31.6514 26.4329 31.6519 25.2673C31.6523 24.1016 31.1896 22.9836 30.3657 22.159C29.9577 21.7508 29.4733 21.4268 28.9402 21.2058C28.407 20.9847 27.8355 20.8708 27.2584 20.8706C26.0927 20.8702 24.9746 21.3328 24.1501 22.1567C22.2946 24.008 20.8225 26.207 19.8181 28.628C18.8136 31.049 18.2966 33.6443 18.2966 36.2653C18.2966 38.8864 18.8136 41.4817 19.8181 43.9026C20.8225 46.3236 22.2946 48.5226 24.1501 50.3739C24.5578 50.7818 25.0418 51.1055 25.5746 51.3264C26.1073 51.5473 26.6784 51.6611 27.2551 51.6613C27.8319 51.6616 28.403 51.5482 28.936 51.3277C29.4689 51.1071 29.9532 50.7838 30.3611 50.3762C30.7691 49.9685 31.0928 49.4845 31.3137 48.9517C31.5346 48.4189 31.6484 47.8479 31.6486 47.2711C31.6488 46.6944 31.5354 46.1233 31.3149 45.5903C31.0944 45.0574 30.7711 44.5732 30.3634 44.1652Z" fill="#FFD75F"/>
<path d="M30.3632 28.366C31.4013 27.3271 32.6338 26.503 33.9905 25.9408C35.3472 25.3785 36.8014 25.0891 38.27 25.0891C39.7386 25.0891 41.1928 25.3785 42.5495 25.9408C43.9062 26.503 45.1388 27.3271 46.1768 28.366C46.5845 28.7739 47.0686 29.0976 47.6013 29.3185C48.1341 29.5394 48.7051 29.6532 49.2819 29.6534C49.8586 29.6537 50.4298 29.5403 50.9627 29.3198C51.4956 29.0992 51.9799 28.7759 52.3879 28.3683C52.7959 27.9606 53.1195 27.4766 53.3404 26.9438C53.5613 26.411 53.6752 25.84 53.6754 25.2632C53.6756 24.6865 53.5622 24.1154 53.3417 23.5824C53.1212 23.0495 52.7978 22.5653 52.3902 22.1573C48.6417 18.4105 43.5586 16.3057 38.2586 16.3057C32.9586 16.3057 27.8756 18.4105 24.1271 22.1573C23.7194 22.5668 23.3964 23.0525 23.1764 23.5868C22.9565 24.1211 22.844 24.6935 22.8452 25.2713C22.8465 25.8491 22.9616 26.421 23.1838 26.9543C23.4061 27.4877 23.7313 27.972 24.1408 28.3796C24.5502 28.7873 25.036 29.1103 25.5703 29.3303C26.1046 29.5502 26.677 29.6628 27.2548 29.6615C27.8326 29.6602 28.4045 29.5452 28.9379 29.3229C29.4712 29.1006 29.9555 28.7754 30.3632 28.366Z" fill="#4FB5E1"/>
<path d="M46.1857 44.1661C45.1476 45.205 43.9151 46.0291 42.5584 46.5914C41.2017 47.1536 39.7475 47.443 38.2789 47.443C36.8103 47.443 35.3561 47.1536 33.9994 46.5914C32.6427 46.0291 31.4101 45.205 30.3721 44.1661C29.5487 43.3422 28.4318 42.8791 27.267 42.8787C26.1022 42.8783 24.985 43.3405 24.161 44.1639C23.3371 44.9872 22.874 46.1041 22.8735 47.2689C22.8731 48.4337 23.3354 49.5509 24.1587 50.3748C27.9072 54.1216 32.9903 56.2265 38.2903 56.2265C43.5903 56.2265 48.6733 54.1216 52.4218 50.3748C53.2451 49.5479 53.7062 48.4277 53.7037 47.2608C53.7011 46.0939 53.2351 44.9758 52.4081 44.1525C51.5812 43.3292 50.461 42.8681 49.2941 42.8706C48.1271 42.8732 47.009 43.3392 46.1857 44.1661Z" fill="#F05751"/>
<path d="M30.3631 28.3653C29.7492 28.9791 28.967 29.3971 28.1154 29.5665C27.2639 29.7358 26.3813 29.6488 25.5792 29.3165C24.7771 28.9843 24.0915 28.4216 23.6092 27.6997C23.1268 26.9778 22.8694 26.1291 22.8694 25.2609C22.8694 24.3927 23.1268 23.544 23.6092 22.8221C24.0915 22.1003 24.7771 21.5376 25.5792 21.2053C26.3813 20.873 27.2639 20.7861 28.1154 20.9554C28.967 21.1247 29.7492 21.5427 30.3631 22.1566C31.1854 22.9805 31.6473 24.0969 31.6473 25.2609C31.6473 26.4249 31.1854 27.5414 30.3631 28.3653Z" fill="#0681B6"/>
<path d="M30.3631 50.3746C29.7492 50.9884 28.967 51.4064 28.1154 51.5758C27.2639 51.7451 26.3813 51.6581 25.5792 51.3258C24.7771 50.9935 24.0915 50.4309 23.6092 49.709C23.1268 48.9871 22.8694 48.1384 22.8694 47.2702C22.8694 46.402 23.1268 45.5533 23.6092 44.8314C24.0915 44.1095 24.7771 43.5469 25.5792 43.2146C26.3813 42.8823 27.2639 42.7953 28.1154 42.9647C28.967 43.134 29.7492 43.552 30.3631 44.1659C31.1854 44.9897 31.6473 46.1062 31.6473 47.2702C31.6473 48.4342 31.1854 49.5507 30.3631 50.3746Z" fill="#CD4739"/>
<path d="M30.2809 44.015C28.2027 41.9146 27.0419 39.0759 27.053 36.1211C27.0641 33.1663 28.2462 30.3364 30.3402 28.2517C30.7803 27.8544 31.1352 27.3719 31.3834 26.8334C31.6315 26.295 31.7678 25.7117 31.7839 25.119C31.8001 24.5264 31.6957 23.9366 31.4772 23.3854C31.2587 22.8342 30.9306 22.3331 30.5127 21.9125C30.0949 21.4919 29.596 21.1604 29.0462 20.9383C28.4965 20.7161 27.9074 20.6079 27.3146 20.6201C26.7219 20.6323 26.1377 20.7647 25.5976 21.0093C25.0575 21.2539 24.5727 21.6055 24.1725 22.043C22.3176 23.8856 20.8439 26.0755 19.8356 28.4878C18.8274 30.9 18.3043 33.4873 18.2962 36.1017C18.2882 38.7162 18.7954 41.3066 19.7888 43.725C20.7822 46.1434 22.2423 48.3424 24.0858 50.1963C24.4841 50.6356 24.9674 50.9895 25.5064 51.2366C26.0454 51.4836 26.629 51.6186 27.2218 51.6335C27.8146 51.6483 28.4042 51.5427 28.9549 51.323C29.5056 51.1032 30.006 50.774 30.4258 50.3552C30.8455 49.9364 31.1759 49.4367 31.3968 48.8865C31.6178 48.3362 31.7247 47.7469 31.7112 47.1541C31.6976 46.5613 31.5639 45.9774 31.318 45.4378C31.0722 44.8983 30.7194 44.4142 30.2809 44.015Z" fill="#FFDA00"/>
<path d="M30.354 28.2518C32.4533 26.1719 35.2919 25.0096 38.2471 25.0198C41.2023 25.0301 44.0327 26.2121 46.1175 28.3066C46.522 28.7203 47.0045 29.0498 47.5371 29.276C48.0697 29.5023 48.6418 29.6208 49.2204 29.6247C49.799 29.6286 50.3727 29.5178 50.9083 29.2988C51.4438 29.0797 51.9307 28.7568 52.3408 28.3485C52.7508 27.9403 53.0759 27.4548 53.2973 26.9202C53.5187 26.3856 53.632 25.8125 53.6307 25.2338C53.6293 24.6552 53.5134 24.0826 53.2895 23.549C53.0656 23.0155 52.7382 22.5316 52.3263 22.1252C50.4897 20.2659 48.3039 18.7877 45.8945 17.7754C43.485 16.7632 40.8993 16.2369 38.2859 16.2267C35.6724 16.2165 33.0827 16.7227 30.6654 17.7162C28.2482 18.7097 26.051 20.1708 24.2 22.0158C23.3819 22.8338 22.9206 23.9421 22.9168 25.099C22.9129 26.2558 23.3668 27.3672 24.1794 28.1906C24.992 29.0141 26.0973 29.4826 27.2541 29.4941C28.4109 29.5056 29.5253 29.059 30.354 28.2518Z" fill="#67B3FF"/>
<path d="M46.0905 44.0749C45.0506 45.104 43.818 45.918 42.4633 46.4702C41.1085 47.0225 39.6581 47.3021 38.1951 47.2932C36.7315 47.298 35.2816 47.0106 33.9305 46.4478C32.5794 45.885 31.3543 45.0581 30.327 44.0156C29.5073 43.1917 28.3939 42.7271 27.2316 42.7241C26.0694 42.7211 24.9536 43.18 24.1296 43.9997C23.3057 44.8194 22.8411 45.9328 22.8381 47.095C22.8352 48.2572 23.294 49.373 24.1137 50.1969C25.9527 52.0575 28.1409 53.5368 30.5529 54.5499C32.9648 55.5629 35.5531 56.0899 38.1691 56.1004C40.7852 56.111 43.3776 55.6051 45.7977 54.6116C48.2178 53.6181 50.4179 52.1566 52.2719 50.3109C53.0989 49.4912 53.5663 48.3766 53.5714 47.2122C53.5766 46.0479 53.119 44.9292 52.2992 44.1022C51.4795 43.2753 50.3649 42.8078 49.2005 42.8027C48.0362 42.7976 46.9175 43.2552 46.0905 44.0749Z" fill="#EB5A68"/>
<path d="M30.354 28.2522C29.7394 28.8641 28.957 29.2798 28.1059 29.4467C27.2549 29.6135 26.3734 29.524 25.5733 29.1895C24.7731 28.855 24.0903 28.2905 23.6112 27.5675C23.1322 26.8446 22.8785 25.9957 22.8824 25.1284C22.8862 24.2612 23.1474 23.4146 23.6328 22.6959C24.1182 21.9772 24.806 21.4188 25.6091 21.0913C26.4122 20.7639 27.2944 20.6822 28.144 20.8566C28.9935 21.0309 29.7722 21.4536 30.3813 22.0709C31.1917 22.8972 31.6434 24.0098 31.6382 25.1672C31.6331 26.3245 31.1716 27.4331 30.354 28.2522Z" fill="#47A1FF"/>
<path d="M30.2808 50.1965C29.6689 50.8111 28.8884 51.2303 28.0381 51.4009C27.1878 51.5715 26.3059 51.4859 25.5043 51.155C24.7027 50.824 24.0173 50.2625 23.5351 49.5417C23.0528 48.8208 22.7954 47.9731 22.7954 47.1058C22.7954 46.2386 23.0528 45.3908 23.5351 44.67C24.0173 43.9491 24.7027 43.3877 25.5043 43.0567C26.3059 42.7257 27.1878 42.6401 28.0381 42.8107C28.8884 42.9814 29.6689 43.4005 30.2808 44.0152C31.0959 44.8373 31.5532 45.9481 31.5532 47.1058C31.5532 48.2635 31.0959 49.3743 30.2808 50.1965Z" fill="#D5465F"/>
</svg>
