<svg width="72" height="73" viewBox="0 0 72 73" fill="none" xmlns="http://www.w3.org/2000/svg">
<rect y="0.0566406" width="72" height="72" rx="8" fill="#6644FF"/>
<g clip-path="url(#clip0_544_1354)">
<path fill-rule="evenodd" clip-rule="evenodd" d="M52.7659 40.5389C52.506 40.4739 52.2896 40.409 52.0946 40.3224C51.9506 40.2583 51.8303 40.1825 51.7248 40.0949C51.6547 40.0366 51.6247 39.9448 51.6333 39.8541C51.7378 38.7666 51.6229 37.8073 51.7266 36.7288C52.1596 32.3557 54.9093 33.7413 57.3777 33.0269C58.795 32.6277 60.2124 31.842 60.7303 30.2965C60.8151 30.0435 60.7405 29.7684 60.5642 29.5681C58.9474 27.7299 57.1574 26.1058 55.2125 24.7139C48.6921 20.0722 40.2181 18.1448 32.4361 19.2723C32.1413 19.315 31.9867 19.6415 32.1478 19.8921C33.1334 21.4256 34.4337 22.6806 35.9248 23.6043C36.1959 23.7721 36.0869 24.1348 35.7759 24.065C35.0446 23.9011 34.105 23.5814 33.2213 22.9578C33.1361 22.8978 33.0263 22.8826 32.9296 22.9212C32.5345 23.0787 31.964 23.3059 31.4925 23.5094C31.2212 23.6265 31.1659 23.9764 31.3893 24.17C35.2981 27.5577 40.9843 28.0726 45.4368 25.3617C45.7081 25.1965 46.1423 25.5359 46.055 25.8412C45.9151 26.3302 45.7516 27.0024 45.5775 27.9179C44.4733 33.5031 41.2905 33.0701 37.35 31.663C29.4759 28.8096 25.0089 31.2463 21.0374 26.4228C20.7614 26.0876 20.2763 25.9714 19.948 26.2556C19.1282 26.9653 18.643 28.0012 18.643 29.1085C18.643 30.42 19.32 31.5434 20.3237 32.2159C20.4492 32.3001 20.616 32.2645 20.7097 32.1459C20.9543 31.8364 21.1543 31.6313 21.4035 31.5015C21.6761 31.3595 21.8091 31.7496 21.5789 31.9533C20.7354 32.7001 20.4933 33.5896 19.9421 35.3433C19.076 38.0926 19.4441 40.9069 15.3952 41.6429C13.2517 41.7512 13.295 43.2016 12.5156 45.3665C11.611 47.9794 10.4264 49.1367 8.2341 51.42C7.93426 51.7323 7.90854 52.2316 8.23806 52.5125C9.11378 53.2587 10.0169 53.2997 10.935 52.9217C13.2084 51.9692 14.9622 49.0251 16.6077 47.12C18.4481 44.9984 22.865 45.9077 26.1994 43.8295C27.9976 42.7269 29.0781 41.3187 28.7326 39.2091C28.6769 38.8692 29.0657 38.6651 29.2068 38.9792C29.4745 39.5755 29.65 40.2117 29.723 40.8689C29.7421 41.0412 29.8962 41.1687 30.0693 41.1589C33.6767 40.9562 38.3418 44.9346 42.7015 46.011C42.9666 46.0764 43.1552 45.7703 43.0053 45.5419C42.7294 45.122 42.4949 44.6861 42.3081 44.2408C42.1153 43.7781 41.9692 43.3291 41.8659 42.8959C41.7851 42.557 42.2803 42.4659 42.4493 42.7706C43.5674 44.7857 45.8019 46.678 48.9119 46.9035C49.9728 46.9901 51.142 46.8602 52.3544 46.4922C53.8051 46.0593 55.1475 45.4964 56.7497 45.7994C57.9406 46.0159 59.0448 46.6221 59.7376 47.6395C60.7099 49.0572 62.7621 49.4328 63.856 47.9512C64.0049 47.7496 64.0174 47.48 63.919 47.2495C61.5105 41.6049 55.3946 41.2172 52.7659 40.5389Z" fill="white"/>
</g>
<defs>
<clipPath id="clip0_544_1354">
<rect width="56" height="34.1979" fill="white" transform="translate(8 18.9575)"/>
</clipPath>
</defs>
</svg>
