<svg width="28" height="30" viewBox="0 0 28 30" fill="none" xmlns="http://www.w3.org/2000/svg">
<path fill-rule="evenodd" clip-rule="evenodd" d="M25.9608 22.2522C23.498 26.2896 19.0501 29 13.9996 29C12.0229 29 10.1398 28.5825 8.42963 27.8345C8.42887 25.0426 8.42658 22.2506 8.41516 19.4587C8.41363 19.1517 8.34279 18.8226 8.2171 18.543C7.48048 16.8976 6.71796 15.2636 5.96305 13.6258C5.93258 13.5602 5.88916 13.5016 5.85108 13.4399C5.82365 13.449 5.79623 13.4582 5.76881 13.4673C5.76881 15.5386 5.76881 17.6091 5.76881 19.6857C5.76881 21.8827 5.76881 24.0883 5.76881 26.3025C2.27918 23.7506 0 19.6293 0 15C0 7.29992 6.29975 1 13.9996 1C21.6995 1 28 7.29992 28 15C27.8446 18.652 26.2655 19.5113 25.2005 19.4694C24.3413 19.4358 23.9817 19.2081 23.7859 19.0115C22.7507 17.9679 22.7576 14.8301 22.7804 11.4349C22.7804 11.4308 22.7804 11.4267 22.7804 11.4227C22.7799 10.0403 22.7779 8.65691 22.7743 7.27402C22.7736 7.00892 22.756 6.73087 22.6776 6.48025C22.5237 5.99271 22.1725 5.67733 21.6629 5.59354C21.1464 5.50746 20.6978 5.66286 20.3755 6.09479C20.2529 6.25857 20.1493 6.43607 20.0457 6.6128C17.7909 10.4512 15.5361 14.2893 13.2813 18.1271C13.2097 18.249 13.1205 18.3595 13.0116 18.5141C11.5026 15.1729 10.8939 13.8771 9.45877 10.6731L7.0996 12.2332C7.60312 13.3043 9.21425 16.6447 11.4965 21.6945C11.7486 22.2522 12.0998 22.6452 12.742 22.678C13.3803 22.71 13.7955 22.3641 14.0986 21.8416C15.5643 19.3206 17.0309 16.8006 18.4986 14.2816C18.9632 13.4841 19.4355 12.685 19.9452 11.8188C19.9208 15.9461 19.984 19.2035 21.7757 21.0074C22.6288 21.8667 23.7814 22.3032 25.2005 22.3032C25.4585 22.3022 25.7119 22.2852 25.9608 22.2522ZM6.73015 11.4867L9.07484 9.93492C8.93087 9.82904 8.75719 9.70258 8.4921 9.35292C8.1135 8.85396 8.1813 8.16683 8.51266 7.83089C9.36583 6.9655 11.047 7.36848 11.0775 7.36163C11.0608 7.33573 10.4635 6.62118 8.97734 6.44216C8.50733 6.38579 8.03428 6.4254 7.56884 6.50996C7.03104 6.60899 6.51533 6.77582 6.03771 7.0493C5.53038 7.33954 5.10074 7.72881 4.66349 8.10894C4.58655 8.17597 4.54999 8.26053 4.5378 8.36261C4.50352 8.64066 4.44639 8.91261 4.259 9.13429C4.10893 9.31179 3.94134 9.46719 3.71282 9.54184C3.64502 9.56394 3.59398 9.55098 3.54599 9.49233C3.41573 9.33312 3.30375 9.31483 3.13769 9.4352C2.92033 9.59365 2.70704 9.75768 2.49781 9.92731C2.3546 10.0439 2.32184 10.2183 2.40259 10.3859C2.43915 10.4606 2.48029 10.5327 2.52599 10.6022C2.78195 10.9885 3.03561 11.3762 3.29766 11.7579C3.40278 11.9102 3.51704 12.0588 3.64502 12.1921C3.76157 12.314 3.88269 12.3117 4.01828 12.2119C4.23005 12.0557 4.43649 11.8919 4.65054 11.7381C4.7709 11.6505 4.80518 11.5484 4.75719 11.4067C4.68711 11.1987 4.72672 11.0037 4.8646 10.8361C4.94077 10.7424 5.02838 10.6548 5.12207 10.5779C5.54256 10.2343 6.10017 10.4164 6.46125 10.958C6.47115 10.9717 6.63112 11.2962 6.73015 11.4867Z" fill="url(#paint0_linear_3529_137)"/>
<defs>
<linearGradient id="paint0_linear_3529_137" x1="-14.5335" y1="18.329" x2="10.0809" y2="-11.0181" gradientUnits="userSpaceOnUse">
<stop stop-color="#00DDFF"/>
<stop offset="1" stop-color="#0C60F2"/>
</linearGradient>
</defs>
</svg>
