<svg width="72" height="73" viewBox="0 0 72 73" fill="none" xmlns="http://www.w3.org/2000/svg">
<rect y="0.226562" width="72" height="72" rx="8" fill="#E82C2A"/>
<g clip-path="url(#clip0_544_1360)">
<path d="M39.4745 34.8228L38.8283 34.1766L35.5252 37.0553C35.3533 36.9942 35.172 36.9635 34.9895 36.9647C34.1008 36.9647 33.3733 37.7122 33.3733 38.6209C33.3733 39.5397 34.1008 40.2772 34.9895 40.2772C35.8783 40.2772 36.6058 39.5297 36.6058 38.6209C36.6058 38.4491 36.5758 38.2772 36.5352 38.1259L39.4745 34.8228ZM52.5745 47.6809L52.5645 21.0547H44.002V23.5497C42.2445 22.4891 40.2745 21.7416 38.1895 21.3478H38.2395V18.3978H39.2802V16.2266H30.6664V18.3984H31.707V21.3484H31.7677C23.5852 22.8528 17.3833 30.0141 17.3833 38.6409C17.3833 48.3516 25.252 56.2266 34.9695 56.2266C38.282 56.2266 41.3839 55.3078 44.0302 53.7116L45.5745 56.2266H54.6152V47.6641H52.5745V47.6809ZM35.4995 47.6641V46.6541H34.4808V47.6541C29.8845 47.3916 26.2183 43.6947 25.9758 39.0916H26.9958V38.0716H25.9858C26.2583 33.5059 29.9152 29.8491 34.4808 29.5866V30.5966H35.5008V29.5866C40.0058 29.8291 43.6258 33.3641 44.0258 37.8191V38.1128H42.9958V39.1328H44.0258V39.4159C43.642 43.8803 40.0058 47.4159 35.5008 47.6584L35.4995 47.6641Z" fill="white"/>
</g>
<defs>
<clipPath id="clip0_544_1360">
<rect width="40" height="40" fill="white" transform="translate(16 16.2266)"/>
</clipPath>
</defs>
</svg>
