<svg width="72" height="73" viewBox="0 0 72 73" fill="none" xmlns="http://www.w3.org/2000/svg">
<rect y="0.226562" width="72" height="72" rx="8" fill="white"/>
<path d="M30.148 45.0859L21.125 57.6651C25.1328 60.3931 29.7147 62.1336 34.9062 62.3672V46.7724C33.0999 46.5742 31.6084 46.0022 30.148 45.0859Z" fill="#104A70"/>
<path d="M34.9062 25.5117L34.8019 9.97656C29.6736 10.2229 25.1164 11.8698 21.125 14.6048L30.1297 27.1484C31.5584 26.2586 33.13 25.6893 34.9062 25.5117Z" fill="#ED7324"/>
<path d="M50.3281 14.3068C46.3164 11.5672 41.6076 10.13 36.4265 9.97656L36.3281 25.4427C38.1082 25.5714 39.7961 26.04 41.2345 26.9297L50.3281 14.3068Z" fill="#FBBC05"/>
<path d="M26.0906 40.1641L11.5 45.0152C13.2048 49.8052 16.1138 53.8382 20.0163 56.8984L29.1094 44.3375C27.8003 43.2175 26.7543 41.7906 26.0906 40.1641Z" fill="#0F1E2A"/>
<path d="M29 27.9408L19.9915 15.4453C17.3631 17.5113 15.219 20.0257 13.5221 22.941C12.6954 24.3614 12.0577 25.8145 11.5 27.3881L26.0476 32.1797C26.7072 30.5462 27.692 29.068 29 27.9408Z" fill="#DF5216"/>
<path d="M25.4661 36.1811C25.4451 35.2784 25.5431 34.3197 25.7395 33.5018L11.1323 28.7891C10.4556 31.1266 10.0781 33.5072 10.0781 36.0625C10.0781 38.6327 10.3717 40.9873 11.0547 43.3359L25.8281 38.692C25.6256 37.8617 25.487 37.0839 25.4661 36.1811Z" fill="#D53C0D"/>
<path d="M42.5625 44.5736L51.6817 57.1172C55.5881 54.0498 58.6911 49.9691 60.3906 45.1749L45.731 40.3828C45.0434 42.0005 43.9121 43.4694 42.5625 44.5736Z" fill="#378A9B"/>
<path d="M36.3281 46.826V62.4766C41.492 62.3161 46.3335 60.7807 50.3281 58.0398L41.1945 45.4141C39.7449 46.2945 38.1028 46.7162 36.3281 46.826Z" fill="#1D77B2"/>
<path d="M60.8209 28.6797L43.3281 34.0873C43.5237 34.942 43.6019 35.3632 43.5994 36.1167C43.5968 36.8703 43.505 37.2696 43.3281 38.1271L60.8828 43.5547C61.5698 41.2045 61.9219 38.6849 61.9219 36.1172C61.9232 33.5358 61.5378 31.0815 60.8209 28.6797Z" fill="#539E82"/>
</svg>
