<svg width="72" height="72" fill="none" xmlns="http://www.w3.org/2000/svg">
  <g clip-path="url(#a)">
    <path d="M64 0H8a8 8 0 0 0-8 8v56a8 8 0 0 0 8 8h56a8 8 0 0 0 8-8V8a8 8 0 0 0-8-8Z" fill="#fff"/>
    <path fill-rule="evenodd" clip-rule="evenodd" d="m44 16.8-6 3.4-6 3.4-6 3.4v20.4l6-3.4 6-3.4v-6.8l-6 3.4v-6.8l6-3.4 6-3.4V44l-6 3.4-6 3.4-6 3.4-6 3.4 6 3.4 6-3.4 6-3.4 6-3.4 6-3.4v-34L44 10v6.8Z" fill="#081026"/>
  </g>
  <defs>
    <clipPath id="a">
      <path fill="#fff" d="M0 0h72v72H0z"/>
    </clipPath>
  </defs>
</svg>
