<svg width="72" height="72" viewBox="0 0 72 72" fill="none" xmlns="http://www.w3.org/2000/svg">
<rect width="72" height="72" rx="8" fill="#0450D5"/>
<g clip-path="url(#clip0_544_1380)">
<path fill-rule="evenodd" clip-rule="evenodd" d="M32.0482 23.9996C31.6457 23.5746 31.3356 23.0709 31.1373 22.5202C30.9391 21.9694 30.857 21.3836 30.8962 20.7996C30.9239 19.661 31.3812 18.5751 32.1762 17.7596C32.5857 17.3592 33.0715 17.0452 33.6047 16.8363C34.138 16.6274 34.7078 16.5279 35.2802 16.5436C35.8392 16.5304 36.3943 16.638 36.9079 16.8589C37.4215 17.0798 37.8814 17.4088 38.2563 17.8236C38.6739 18.1997 39.009 18.6584 39.2403 19.1707C39.4716 19.6829 39.5942 20.2376 39.6003 20.7996C39.6209 21.3984 39.5114 21.9946 39.2794 22.5471C39.0474 23.0995 38.6983 23.5951 38.2563 23.9996C37.4195 24.792 36.3044 25.2231 35.1522 25.1996C34.5809 25.2174 34.0118 25.1204 33.4786 24.9143C32.9454 24.7082 32.459 24.3971 32.0482 23.9996ZM44.4163 45.7596C40.0963 57.5036 23.7282 60.6716 26.8162 45.4396L30.3362 28.1596H37.8243C36.1122 37.3596 34.8322 42.9596 33.5682 49.3596C32.3042 55.7596 40.4163 51.0716 42.2563 45.7436H44.4163V45.7596Z" fill="white"/>
</g>
<defs>
<clipPath id="clip0_544_1380">
<rect width="19.2" height="40" fill="white" transform="translate(26.3999 16)"/>
</clipPath>
</defs>
</svg>
