<svg width="72" height="73" viewBox="0 0 72 73" fill="none" xmlns="http://www.w3.org/2000/svg">
<rect y="0.226562" width="72" height="72" rx="8" fill="white"/>
<g transform="translate(8 6.226562) scale(0.5)">
<path fill="#97E3F8" fill-opacity=".5" d="M72 20H20v6h52v-6Zm0 62H20v6h52v-6ZM0 40h6v28H0V40Zm92 0h-6v28h6V40Z"/>
<path fill="#0068F1" d="M8 20h14v6H8a2 2 0 0 0-2 2v14H0V28a8 8 0 0 1 8-8Zm62 0v6h14a2 2 0 0 1 2 2v14h6V28a8 8 0 0 0-8-8H70Zm14 62H70v6h14a8 8 0 0 0 8-8V66h-6v14a2 2 0 0 1-2 2ZM6 80V66H0v14a8 8 0 0 0 8 8h14v-6H8a2 2 0 0 1-2-2Zm43-38h-6v9h-9v6h9v9h6v-9h9v-6h-9v-9Zm43.608 48.229 4.578 16.787c.306 1.121 1.807 1.328 2.405.332L104 100l7.348-4.409c.996-.598.789-2.099-.332-2.405l-16.787-4.578a1.32 1.32 0 0 0-1.621 1.62Z"/>
</g>
</svg>
