<svg width="72" height="73" viewBox="0 0 72 73" fill="none" xmlns="http://www.w3.org/2000/svg">
<rect y="0.226562" width="72" height="72" rx="8" fill="#EFDA4F"/>
<g clip-path="url(#clip0_544_1386)">
<path d="M61.8605 62.2624C44.5743 62.2624 27.3072 62.2624 10.04 62.2624C10.0386 62.2577 10.0361 62.2531 10.0361 62.2485C10.0359 44.9213 10.0359 27.5941 10.0359 10.2646C27.3675 10.2646 44.6992 10.2646 62.0334 10.2646C62.0334 27.5938 62.0334 44.9253 62.0334 62.2624C61.9838 62.2624 61.9316 62.2624 61.8605 62.2624ZM52.9196 44.2447C52.8366 44.15 52.7582 44.051 52.6701 43.9613C51.6936 42.9686 50.4641 42.7616 49.1551 42.8798C48.0198 42.9824 47.0474 43.4821 46.2067 44.2447C46.1614 44.2858 46.1117 44.3224 46.0463 44.3756C46.0463 44.2694 46.0506 44.1918 46.0456 44.1149C46.0212 43.7377 45.8439 43.4517 45.5084 43.2798C45.1795 43.1114 44.8433 43.1275 44.5331 43.3257C44.1882 43.546 44.0704 43.8847 44.0708 44.2828C44.0733 47.2653 44.0721 50.2476 44.0721 53.23C44.0721 53.416 44.0684 53.6022 44.073 53.7881C44.0845 54.2669 44.3383 54.6461 44.7238 54.7675C45.4001 54.9804 46.0452 54.5115 46.0461 53.7983C46.0488 51.752 46.0483 49.7057 46.0463 47.6594C46.0458 47.0831 46.1915 46.5547 46.5591 46.1048C47.4156 45.0565 48.5247 44.6137 49.8664 44.7665C50.5198 44.841 51.0478 45.1443 51.41 45.7043C51.7499 46.2299 51.8663 46.8231 51.871 47.434C51.8837 49.12 51.8788 50.8062 51.8806 52.4924C51.8811 52.9544 51.8735 53.4166 51.8825 53.8786C51.8966 54.6011 52.6732 55.0483 53.3091 54.705C53.7135 54.4867 53.8572 54.1298 53.8567 53.689C53.8542 51.7747 53.8598 49.8604 53.8525 47.9462C53.8508 47.4916 53.8355 47.0342 53.7827 46.5832C53.6848 45.7469 53.4526 44.9519 52.9196 44.2447ZM40.4717 43.1759C40.353 43.1844 40.2293 43.1745 40.1162 43.2045C39.6452 43.3298 39.3856 43.7042 39.3853 44.248C39.3841 46.1984 39.3881 48.1488 39.3816 50.0992C39.3805 50.4217 39.3636 50.749 39.3067 51.0656C39.1565 51.9011 38.7085 52.5269 37.9046 52.8439C37.1215 53.1528 36.3152 53.1635 35.5043 52.9434C34.8892 52.7765 34.4176 52.4235 34.1096 51.8628C33.8888 51.4608 33.7813 51.0226 33.7733 50.5693C33.7572 49.6515 33.7627 48.7332 33.7617 47.815C33.7603 46.6268 33.7632 45.4385 33.7605 44.2503C33.7591 43.6652 33.3705 43.2056 32.862 43.1758C32.2321 43.139 31.788 43.5679 31.7873 44.2246C31.7851 46.229 31.7825 48.2334 31.7887 50.2377C31.7909 50.9543 31.8679 51.6611 32.1407 52.3356C32.6582 53.6153 33.624 54.3878 34.9198 54.7637C35.7354 55.0003 36.5755 55.0147 37.4172 54.9157C38.0675 54.8391 38.6892 54.6617 39.2555 54.3325C40.593 53.5553 41.2735 52.3466 41.3167 50.8374C41.38 48.6248 41.3541 46.4095 41.3565 44.1953C41.3572 43.6397 41.0304 43.2711 40.4717 43.1759Z" fill="#EFDA4F"/>
<path d="M52.9267 44.2556C53.4526 44.9521 53.6849 45.747 53.7827 46.5833C53.8355 47.0344 53.8509 47.4917 53.8526 47.9464C53.8599 49.8606 53.8543 51.7748 53.8567 53.6891C53.8573 54.1299 53.7136 54.4869 53.3092 54.7052C52.6733 55.0484 51.8966 54.6012 51.8826 53.8787C51.8735 53.4168 51.8812 52.9546 51.8807 52.4925C51.8789 50.8064 51.8838 49.1202 51.871 47.4341C51.8664 46.8232 51.75 46.23 51.41 45.7044C51.0479 45.1444 50.5199 44.8412 49.8664 44.7667C48.5248 44.6138 47.4156 45.0566 46.5591 46.1049C46.1916 46.5549 46.0458 47.0832 46.0464 47.6596C46.0483 49.7058 46.0488 51.7521 46.0462 53.7984C46.0453 54.5117 45.4002 54.9806 44.7239 54.7677C44.3383 54.6463 44.0846 54.267 44.073 53.7883C44.0685 53.6023 44.0723 53.4162 44.0723 53.2302C44.0723 50.2478 44.0734 47.2654 44.0708 44.283C44.0705 43.8849 44.1883 43.5461 44.5331 43.3258C44.8434 43.1276 45.1796 43.1116 45.5084 43.28C45.844 43.4519 46.0212 43.7378 46.0457 44.115C46.0506 44.192 46.0464 44.2695 46.0464 44.3758C46.1118 44.3226 46.1614 44.2859 46.2068 44.2448C47.0474 43.4822 48.0199 42.9825 49.1552 42.88C50.4642 42.7617 51.6937 42.9687 52.6701 43.9615C52.7582 44.0511 52.8366 44.1502 52.9267 44.2556Z" fill="#0C0C0D"/>
<path d="M40.4878 43.1769C41.0304 43.2713 41.3572 43.6399 41.3565 44.1955C41.3542 46.4098 41.38 48.625 41.3167 50.8376C41.2736 52.3469 40.5931 53.5555 39.2556 54.3327C38.6892 54.6619 38.0675 54.8393 37.4172 54.9158C36.5755 55.0149 35.7354 55.0005 34.9198 54.7639C33.6241 54.388 32.6583 53.6155 32.1408 52.3358C31.8679 51.6612 31.791 50.9546 31.7888 50.2379C31.7826 48.2336 31.7852 46.2292 31.7873 44.2248C31.7881 43.5681 32.2322 43.1392 32.862 43.176C33.3705 43.2058 33.7592 43.6653 33.7605 44.2505C33.7633 45.4387 33.7604 46.627 33.7617 47.8152C33.7627 48.7333 33.7573 49.6517 33.7734 50.5695C33.7814 51.0228 33.8889 51.4611 34.1097 51.863C34.4176 52.4238 34.8892 52.7766 35.5043 52.9436C36.3151 53.1637 37.1215 53.153 37.9047 52.8441C38.7085 52.5271 39.1566 51.9013 39.3068 51.0658C39.3637 50.7492 39.3805 50.4219 39.3816 50.0994C39.3882 48.149 39.3842 46.1986 39.3854 44.2483C39.3857 43.7045 39.6453 43.33 40.1163 43.2048C40.2293 43.1747 40.353 43.1846 40.4878 43.1769Z" fill="#0C0C0D"/>
</g>
<defs>
<clipPath id="clip0_544_1386">
<rect width="52" height="52" fill="white" transform="translate(10 10.2266)"/>
</clipPath>
</defs>
</svg>
