<svg width="72" height="73" viewBox="0 0 72 73" fill="none" xmlns="http://www.w3.org/2000/svg">
<rect y="0.226562" width="72" height="72" rx="8" fill="#014847"/>
<g clip-path="url(#clip0_544_1392)">
<mask id="mask0_544_1392" style="mask-type:luminance" maskUnits="userSpaceOnUse" x="8" y="11" width="56" height="50">
<path d="M63.9999 11.5078H8V60.7856H63.9999V11.5078Z" fill="white"/>
</mask>
<g mask="url(#mask0_544_1392)">
<path d="M23.1343 52.6543H22.6055L19.9661 50.0149V49.4861L24.0011 45.4512H26.7965L27.1692 45.8239V48.6193L23.1343 52.6543Z" fill="#32E6E2"/>
<path d="M19.9661 22.802V22.2732L22.6055 19.6338H23.1343L27.1692 23.6688V26.4642L26.7965 26.837H24.0011L19.9661 22.802Z" fill="#32E6E2"/>
<path d="M43.201 44.1467H39.361L39.0403 43.826V34.8372C39.0403 33.238 38.4119 31.9984 36.4832 31.9551C35.4907 31.9291 34.3552 31.9551 33.1417 32.0028L32.9597 32.1891V43.8217L32.6389 44.1424H28.799L28.4783 43.8217V28.4662L28.799 28.1455H37.4411C40.7999 28.1455 43.5217 30.8673 43.5217 34.2261V43.826L43.201 44.1467Z" fill="white"/>
<path d="M23.6805 38.3914H8.32072L8 38.0707V34.2221L8.32072 33.9014H23.6805L24.0012 34.2221V38.0707L23.6805 38.3914Z" fill="#32E6E2"/>
<path d="M63.6835 38.3914H48.3237L48.0029 38.0707V34.2221L48.3237 33.9014H63.6835L64.0042 34.2221V38.0707L63.6835 38.3914Z" fill="#32E6E2"/>
<path d="M33.7876 23.3484V11.8285L34.1083 11.5078H37.9569L38.2777 11.8285V23.3484L37.9569 23.6691H34.1083L33.7876 23.3484Z" fill="#32E6E2"/>
<path d="M33.7876 60.4655V48.9457L34.1083 48.625H37.9569L38.2777 48.9457V60.4655L37.9569 60.7862H34.1083L33.7876 60.4655Z" fill="#32E6E2"/>
</g>
</g>
<defs>
<clipPath id="clip0_544_1392">
<rect width="55.9999" height="49.4375" fill="white" transform="translate(8 11.5078)"/>
</clipPath>
</defs>
</svg>
