<svg width="72" height="73" viewBox="0 0 72 73" fill="none" xmlns="http://www.w3.org/2000/svg">
<rect y="0.226562" width="72" height="72" rx="8" fill="#4338CA"/>
<g clip-path="url(#clip0_544_1405)">
<path d="M29.563 29.841C29.5675 29.8336 29.5721 29.8262 29.5762 29.8184L29.5778 29.8159C29.6021 29.7682 29.6161 29.7144 29.6161 29.6572C29.6161 29.5293 29.547 29.4175 29.4446 29.3567C29.4434 29.3554 29.4425 29.3538 29.4413 29.353C27.2819 28.175 24.3988 28.4533 22.4898 30.4175C21.4179 31.5198 20.8707 32.9379 20.8427 34.363H20.8411V39.9572C20.8411 40.1505 20.9977 40.3067 21.1906 40.3067H22.8224C23.0157 40.3067 23.1719 40.1501 23.1719 39.9572V34.4793H23.1728C23.1728 33.6011 23.5009 32.7216 24.1612 32.042C25.3404 30.829 27.0808 30.7382 28.281 31.3767C28.2847 31.3787 28.2884 31.3808 28.2925 31.3824C28.2954 31.3841 28.2979 31.3853 28.3008 31.3866C28.3464 31.4079 28.397 31.4207 28.4504 31.4207C28.5869 31.4207 28.7049 31.3422 28.7625 31.2283L29.5638 29.8406L29.563 29.841Z" fill="white"/>
<path d="M13.8467 28.6514C10.6285 28.6514 8.01929 31.2602 8.01929 34.4788V43.4532C8.01929 43.646 8.17594 43.8027 8.36877 43.8027H10.0007C10.1939 43.8027 10.3502 43.646 10.3502 43.4532V39.1409C11.3242 39.8724 12.5347 40.3062 13.8467 40.3062C17.0648 40.3062 19.6745 37.6969 19.6745 34.4788C19.6745 31.2606 17.0652 28.6514 13.8467 28.6514ZM13.8467 37.9753C11.9159 37.9753 10.3502 36.41 10.3502 34.4788C10.3502 32.5475 11.9154 30.9822 13.8467 30.9822C15.7779 30.9822 17.3432 32.5475 17.3432 34.4788C17.3432 36.41 15.7775 37.9753 13.8467 37.9753Z" fill="white"/>
<path d="M48.2117 28.6509C44.9935 28.6509 42.3843 31.2597 42.3843 34.4783V43.4527C42.3843 43.6455 42.5409 43.8022 42.7338 43.8022H44.3657C44.5589 43.8022 44.7151 43.6455 44.7151 43.4527V39.1404C45.6892 39.8719 46.8996 40.3057 48.2117 40.3057C51.4298 40.3057 54.0395 37.6964 54.0395 34.4783C54.0395 31.2601 51.4302 28.6509 48.2117 28.6509ZM48.2117 37.9748C46.2808 37.9748 44.7151 36.4095 44.7151 34.4783C44.7151 32.547 46.2804 30.9818 48.2117 30.9818C50.1429 30.9818 51.7082 32.547 51.7082 34.4783C51.7082 36.4095 50.1425 37.9748 48.2117 37.9748Z" fill="white"/>
<path d="M41.1779 34.5946C41.1779 31.376 38.5687 28.6504 35.3501 28.6504C32.1315 28.6504 29.5227 31.2592 29.5227 34.4778C29.5227 37.6964 32.1319 40.3052 35.3501 40.3052C37.1719 40.3052 38.6743 39.4705 39.6167 38.4463C39.6167 38.4463 39.6183 38.4447 39.6188 38.4438C39.6804 38.3805 39.7187 38.2946 39.7187 38.1992C39.7187 38.0985 39.6759 38.008 39.6077 37.9443L39.6027 37.9398C39.5937 37.9315 39.5846 37.9241 39.5748 37.9171L38.3281 36.9024C38.2665 36.8485 38.1863 36.8152 38.0979 36.8152C37.9881 36.8152 37.8902 36.8658 37.8261 36.9452C37.2723 37.5089 36.3965 37.9743 35.3493 37.9743C33.4185 37.9743 31.8528 36.409 31.8528 34.4778C31.8528 32.5466 33.418 30.9813 35.3493 30.9813C36.8714 30.9813 38.1657 31.9545 38.646 33.3121H35.6404C35.4471 33.3121 35.2909 33.4688 35.2909 33.6616V35.2935C35.2909 35.4868 35.4471 35.643 35.6404 35.643H40.7104C40.7198 35.643 40.7293 35.6422 40.7388 35.6414C40.7482 35.6422 40.7577 35.643 40.7671 35.643C40.9225 35.643 41.0537 35.5419 41.0993 35.4017L41.1035 35.4025C41.1055 35.3897 41.1076 35.3778 41.1092 35.3655C41.1117 35.3536 41.1137 35.3416 41.115 35.3293C41.1557 35.0686 41.1766 34.8828 41.1766 34.5946H41.1779Z" fill="white"/>
<path d="M63.9399 29.8164L63.9416 29.814C63.9658 29.7663 63.9798 29.7124 63.9798 29.6553C63.9798 29.5274 63.9108 29.4156 63.8084 29.3547C63.8071 29.3535 63.8063 29.3518 63.8051 29.351C61.6457 28.173 58.7626 28.4514 56.8536 30.4155C55.7817 31.5178 55.2344 32.9359 55.2065 34.361H55.2048V39.9553C55.2048 40.1485 55.3615 40.3048 55.5543 40.3048H57.1862C57.3795 40.3048 57.5357 40.1481 57.5357 39.9553V34.4774H57.5365C57.5365 33.5991 57.8646 32.7196 58.525 32.04C59.7042 30.8271 61.4446 30.7362 62.6448 31.3747C62.6485 31.3768 62.6522 31.3789 62.6563 31.3805C62.6592 31.3821 62.6616 31.3834 62.6645 31.3846C62.7102 31.406 62.7607 31.4187 62.8142 31.4187C62.9507 31.4187 63.0687 31.3402 63.1263 31.2263L63.9276 29.8386C63.9321 29.8312 63.9367 29.8238 63.9408 29.816L63.9399 29.8164Z" fill="white"/>
</g>
<defs>
<clipPath id="clip0_544_1405">
<rect width="56.0001" height="15.213" fill="white" transform="translate(8 28.6201)"/>
</clipPath>
</defs>
</svg>
