<svg width="72" height="73" viewBox="0 0 72 73" fill="none" xmlns="http://www.w3.org/2000/svg">
<rect y="0.226562" width="72" height="72" rx="8" fill="#E8C7FE"/>
<path fill-rule="evenodd" clip-rule="evenodd" d="M55.5733 37.0497L52.6162 34.0927C52.3818 33.8582 52.2501 33.5403 52.2501 33.2088V29.5911C52.2501 26.248 51.902 25.0356 51.2483 23.8134C50.5947 22.5912 49.6355 21.632 48.4133 20.9783C47.1911 20.3247 45.9787 19.9766 42.6356 19.9766H37.8538C37.7158 19.9766 37.6038 19.8646 37.6038 19.7266C37.6038 19.6603 37.6301 19.5967 37.6771 19.5498L40.6341 16.5927C40.8686 16.3583 41.1864 16.2266 41.518 16.2266H43.1808C47.6384 16.2266 49.2547 16.6907 50.8843 17.5622C52.514 18.4338 53.7929 19.7127 54.6644 21.3423C55.5359 22.972 56 24.5884 56 29.046V36.873C56 37.011 55.8882 37.123 55.75 37.123C55.6838 37.123 55.6202 37.0967 55.5733 37.0497Z" fill="#151418"/>
<path fill-rule="evenodd" clip-rule="evenodd" d="M35.1771 55.7997L38.1341 52.8427C38.3686 52.6082 38.6864 52.4765 39.018 52.4765H42.6356C45.9787 52.4765 47.1911 52.1284 48.4133 51.4748C49.6355 50.8211 50.5947 49.862 51.2483 48.6397C51.9019 47.4175 52.2501 46.2051 52.2501 42.862V38.0801C52.2501 37.9421 52.3619 37.8301 52.5001 37.8301C52.5664 37.8301 52.6299 37.8564 52.6769 37.9034L55.6339 40.8604C55.8684 41.0949 56 41.4128 56 41.7443V43.4071C56 47.8647 55.5359 49.4811 54.6644 51.1108C53.7929 52.7404 52.5139 54.0194 50.8843 54.8909C49.2547 55.7624 47.6383 56.2265 43.1807 56.2265H35.3538C35.2158 56.2265 35.1038 56.1146 35.1038 55.9765C35.1038 55.9102 35.1301 55.8467 35.1771 55.7997Z" fill="#151418"/>
<path fill-rule="evenodd" clip-rule="evenodd" d="M16.4268 35.4034L19.3838 38.3604C19.6183 38.5949 19.75 38.9128 19.75 39.2443V42.862C19.75 46.2051 20.0981 47.4175 20.7517 48.6397C21.4053 49.8619 22.3645 50.8211 23.5867 51.4748C24.809 52.1284 26.0213 52.4765 29.3645 52.4765H34.1463C34.2843 52.4765 34.3963 52.5884 34.3963 52.7265C34.3963 52.7929 34.3699 52.8564 34.323 52.9034L31.366 55.8604C31.1315 56.0949 30.8136 56.2265 30.4821 56.2265H28.8193C24.3618 56.2265 22.7453 55.7624 21.1157 54.8909C19.4861 54.0194 18.2072 52.7404 17.3356 51.1108C16.4641 49.4811 16 47.8647 16 43.4071V35.5801C16 35.4421 16.1119 35.3301 16.25 35.3301C16.3163 35.3301 16.3799 35.3564 16.4268 35.4034Z" fill="#151418"/>
<path fill-rule="evenodd" clip-rule="evenodd" d="M36.823 16.6533L33.8659 19.6104C33.6315 19.8449 33.3136 19.9766 32.9821 19.9766H29.3645C26.0213 19.9766 24.809 20.3247 23.5868 20.9783C22.3646 21.632 21.4053 22.5912 20.7517 23.8134C20.0981 25.0356 19.75 26.248 19.75 29.5911V34.373C19.75 34.511 19.638 34.623 19.5 34.623C19.4337 34.623 19.3701 34.5967 19.3232 34.5497L16.3661 31.5927C16.1317 31.3582 16 31.0403 16 30.7088V29.046C16 24.5884 16.4641 22.972 17.3356 21.3423C18.2072 19.7127 19.4861 18.4338 21.1157 17.5622C22.7453 16.6907 24.3618 16.2266 28.8193 16.2266H36.6463C36.7843 16.2266 36.8963 16.3385 36.8963 16.4766C36.8963 16.5429 36.8699 16.6065 36.823 16.6533Z" fill="#151418"/>
<path fill-rule="evenodd" clip-rule="evenodd" d="M49.3279 30.8226L45.2957 26.9688C45.029 26.7022 44.7171 26.5083 44.3847 26.3874C44.1098 26.2834 43.8119 26.2266 43.5006 26.2266H31.6016C31.4634 26.2266 31.3516 26.1147 31.3516 25.9766C31.3516 25.9102 31.3779 25.8466 31.4249 25.7997L34.3847 22.8423C34.6191 22.6081 34.9368 22.4766 35.2682 22.4766H44.7506C47.512 22.4766 49.7506 24.7151 49.7506 27.4766V30.6418C49.7506 30.7798 49.6387 30.8918 49.5006 30.8918C49.4362 30.8918 49.3743 30.867 49.3279 30.8226Z" fill="#151418"/>
<path fill-rule="evenodd" clip-rule="evenodd" d="M41.4047 49.5567L45.2585 45.5243C45.5251 45.2577 45.7189 44.9458 45.8399 44.6134C45.9439 44.3385 46.0007 44.0405 46.0007 43.7294V31.8301C46.0007 31.6921 46.1127 31.5801 46.2507 31.5801C46.317 31.5801 46.3807 31.6064 46.4275 31.6534L49.3849 34.6133C49.6191 34.8477 49.7507 35.1655 49.7507 35.4968V44.9794C49.7507 47.7408 47.5121 49.9794 44.7507 49.9794H41.5854C41.4474 49.9794 41.3354 49.8674 41.3354 49.7294C41.3354 49.665 41.3603 49.6031 41.4047 49.5567Z" fill="#151418"/>
<path fill-rule="evenodd" clip-rule="evenodd" d="M22.6727 41.6303L26.705 45.4841C26.9716 45.7507 27.2835 45.9446 27.6159 46.0655C27.8908 46.1695 28.1886 46.2263 28.4999 46.2263H40.3991C40.5371 46.2263 40.6491 46.3382 40.6491 46.4763C40.6491 46.5427 40.6226 46.6063 40.5758 46.6531L37.6158 49.6106C37.3815 49.8448 37.0637 49.9763 36.7324 49.9763H27.25C24.4886 49.9763 22.25 47.7377 22.25 44.9763V41.811C22.25 41.673 22.3619 41.561 22.5 41.561C22.5643 41.561 22.6262 41.5859 22.6727 41.6303Z" fill="#151418"/>
<path fill-rule="evenodd" clip-rule="evenodd" d="M30.5959 22.8993L26.7422 26.9315C26.4756 27.1982 26.2818 27.5101 26.1608 27.8424C26.0568 28.1174 26 28.4153 26 28.7266V40.6258C26 40.7638 25.888 40.8758 25.75 40.8758C25.6836 40.8758 25.62 40.8494 25.5731 40.8025L22.6157 37.8426C22.3816 37.6082 22.25 37.2904 22.25 36.9591V27.4766C22.25 24.7151 24.4886 22.4766 27.25 22.4766H30.4152C30.5532 22.4766 30.6652 22.5885 30.6652 22.7266C30.6652 22.7909 30.6404 22.8528 30.5959 22.8993Z" fill="#151418"/>
</svg>
