<svg width="72" height="72" viewBox="0 0 72 72" fill="none" xmlns="http://www.w3.org/2000/svg">
<rect width="72" height="72" rx="8" fill="#F04B38"/>
<path d="M24.0497 21.4033C24.0497 26.6865 27.3702 29.8342 34.0234 31.4924L41.0717 33.0971C47.3669 34.5167 51.1976 38.047 51.1976 43.7952C51.2449 46.306 50.4156 48.7548 48.8523 50.7201C48.8523 44.9843 45.8322 41.886 38.5494 40.0221L31.6287 38.475C26.0864 37.2323 21.8073 34.3315 21.8073 28.0896C21.7811 25.672 22.5712 23.3163 24.0497 21.4033Z" fill="white"/>
<path opacity="0.7" d="M44.521 42.388C47.5246 44.2766 48.8454 46.9182 48.8454 50.7119C46.3561 53.8431 41.9864 55.6001 36.8473 55.6001C28.1985 55.6001 22.146 51.4196 20.8005 44.1531H29.1078C30.1776 47.486 33.0084 49.0331 36.7856 49.0331C41.4021 49.0331 44.4675 46.6137 44.5292 42.3756L44.521 42.388ZM28.3672 29.2376C26.9999 28.4413 25.8738 27.2896 25.1085 25.9047C24.3484 24.53 23.9812 22.9727 24.0469 21.4033C26.4498 18.2968 30.6302 16.3999 35.7158 16.3999C44.5292 16.3999 49.623 20.9713 50.8821 27.4066H42.8957C42.0111 24.8719 39.8098 22.8969 35.7858 22.8969C31.4861 22.8969 28.5565 25.3534 28.3878 29.2376" fill="white"/>
</svg>
