<svg width="72" height="72" viewBox="0 0 72 72" fill="none" xmlns="http://www.w3.org/2000/svg">
<rect width="72" height="72" rx="8" fill="#00B3B0"/>
<path d="M39.2253 34.1633H30V38.5047H39.0035C39.5357 38.5047 40.0236 38.2877 40.4228 37.9404C40.7776 37.593 40.9994 37.0721 40.9994 36.4209C41.0122 35.8622 40.8412 35.3142 40.5115 34.8579C40.1567 34.4238 39.7575 34.1633 39.2253 34.1633ZM39.5357 28.9102C39.9349 28.6497 40.1123 28.0853 40.1123 27.3473C40.1123 26.6961 39.9349 26.2185 39.6244 25.9146C39.314 25.6541 38.9148 25.4805 38.4713 25.4805H30V29.3878H38.2939C38.7374 29.3878 39.1809 29.1707 39.5357 28.9102Z" fill="white"/>
<path d="M54.2049 12.4561H18.0714C16.9206 12.4561 16 13.3739 16 14.4754V50.5485C16 51.65 16.9206 52.3384 18.0253 52.3384H23.3648V59.5438L29.9931 52.3843H54.2049C55.3097 52.3843 56.0001 51.6959 56.0001 50.5485V14.5213C56.0001 13.4198 55.3097 12.5019 54.1589 12.5019L54.2049 12.4561ZM48.129 41.6909C47.6687 42.517 46.9782 43.2054 46.1497 43.7102C45.2751 44.261 44.3085 44.7658 43.2038 44.9953C42.099 45.2706 40.9023 45.5001 39.6594 45.5001H23.3648V19.7992H41.8689C42.7895 19.7992 43.572 19.9828 44.3085 20.3958C44.9989 20.763 45.6433 21.2678 46.1497 21.8644C47.1809 23.1183 47.7351 24.6948 47.7147 26.3162C47.7147 27.5095 47.3925 28.6568 46.7941 29.7583C46.1737 30.8662 45.2025 31.7378 44.0323 32.2366C45.5053 32.6496 46.656 33.384 47.5306 34.4395C48.3591 35.541 48.7734 36.9637 48.7734 38.7536C48.7734 39.901 48.5432 40.8648 48.0829 41.6909H48.129Z" fill="white"/>
</svg>
