<svg width="72" height="72" viewBox="0 0 72 72" fill="none" xmlns="http://www.w3.org/2000/svg">
<rect width="72" height="72" rx="8" fill="#4945FF"/>
<path fill-rule="evenodd" clip-rule="evenodd" d="M55.8786 15.5889H28.9451V29.3222H42.6786V43.0554H56.4118V16.1222C56.4118 15.8277 56.1729 15.5889 55.8786 15.5889Z" fill="white"/>
<path d="M28.9451 29.3218H42.145C42.4397 29.3218 42.6786 29.5606 42.6786 29.855V43.055H29.4784C29.1839 43.055 28.9451 42.8165 28.9451 42.5218V29.3218Z" fill="#9593FF"/>
<path d="M42.6785 43.0547H56.4117L43.1336 56.3328C42.9656 56.5007 42.6785 56.3819 42.6785 56.1445V43.0547Z" fill="#9593FF"/>
<path d="M28.9449 29.3222H15.8553C15.6178 29.3222 15.4988 29.035 15.6668 28.867L28.9449 15.5889V29.3222Z" fill="#9593FF"/>
</svg>
