<svg width="72" height="72" viewBox="0 0 72 72" fill="none" xmlns="http://www.w3.org/2000/svg">
<rect width="72" height="72" rx="8" fill="white"/>
<g clip-path="url(#clip0_524_370)">
<path d="M25.248 18.3322C22.2276 21.3526 22.2276 26.2497 25.248 29.2701L31.0503 35.0723L23.3918 42.7309C20.3714 45.7513 20.3714 50.6483 23.3918 53.6686C26.4122 56.689 31.3093 56.689 34.3297 53.6686C38.0665 49.9319 45.5387 42.4572 45.5387 42.4572L44.7907 26.937L36.1859 18.3322C33.1655 15.3118 28.2684 15.3118 25.248 18.3322Z" fill="#00FFA3"/>
<path d="M31.0503 35.0723L23.3918 42.7308C20.3714 45.7512 20.3714 50.6482 23.3918 53.6685C26.4122 56.6889 31.3093 56.6889 34.3297 53.6685L49.4244 38.5739C51.3575 36.641 51.3575 33.5072 49.4249 31.5741L36.5633 18.7095C39.575 21.7306 39.5721 26.6212 36.5547 29.6387L31.0857 35.1077L31.0503 35.0723Z" fill="#8F00FF"/>
</g>
<defs>
<clipPath id="clip0_524_370">
<rect width="29.8039" height="39.9999" fill="white" transform="translate(21.0981 16)"/>
</clipPath>
</defs>
</svg>
