<svg width="72" height="73" viewBox="0 0 72 73" fill="none" xmlns="http://www.w3.org/2000/svg">
<rect y="0.226562" width="72" height="72" rx="8" fill="#283A97"/>
<path d="M36 14.2266C23.85 14.2266 14 24.0766 14 36.2266C14 48.3766 23.85 58.2266 36 58.2266C48.15 58.2266 58 48.3766 58 36.2266C58 24.0766 48.15 14.2266 36 14.2266ZM35.49 46.4266C33.55 46.487 31.61 46.307 29.71 45.904C28.31 45.62 27.13 44.68 26.55 43.365C25.98 42.066 25.71 40.05 25.73 37.332C25.74 35.913 25.83 34.494 25.99 33.09C26.16 31.716 26.32 30.581 26.47 29.685L26.64 28.804C26.64 28.774 26.64 28.76 26.64 28.73C26.64 28.476 26.46 28.267 26.22 28.222L22.99 27.714H22.95C22.71 27.714 22.51 27.878 22.45 28.102C22.39 28.312 22.37 28.461 22.28 28.954C22.1 29.91 21.92 30.835 21.74 32.18C21.54 33.643 21.42 35.122 21.38 36.6C21.3 37.631 21.3 38.661 21.38 39.692C21.45 42.425 21.93 44.62 22.78 46.248C23.63 47.876 25.11 49.055 27.17 49.772C29.23 50.489 32.1 50.847 35.79 50.832H36.25C39.94 50.847 42.81 50.504 44.87 49.772C46.93 49.055 48.4 47.876 49.26 46.248C50.13 44.605 50.59 42.425 50.67 39.692C50.74 38.661 50.74 37.631 50.67 36.6C50.62 35.122 50.5 33.643 50.31 32.18C50.11 30.851 49.95 29.925 49.77 28.954C49.68 28.461 49.64 28.312 49.59 28.102C49.53 27.878 49.34 27.714 49.1 27.714H49.01L45.78 28.222C45.54 28.267 45.36 28.476 45.36 28.73C45.36 28.76 45.36 28.774 45.36 28.804L45.54 29.685C45.71 30.581 45.87 31.716 46.04 33.076C46.2 34.48 46.29 35.898 46.3 37.317C46.33 40.035 46.05 42.036 45.48 43.351C44.92 44.65 43.75 45.59 42.36 45.89C40.47 46.293 38.52 46.472 36.58 46.412L35.49 46.4266Z" fill="white"/>
</svg>
