<svg width="72" height="73" viewBox="0 0 72 73" fill="none" xmlns="http://www.w3.org/2000/svg">
<rect y="0.226562" width="72" height="72" rx="8" fill="#F4801F"/>
<g clip-path="url(#clip0_544_1328)">
<path d="M46.2139 48.5086L46.4992 47.519C46.838 46.3428 46.7126 45.2573 46.1418 44.4571C45.6084 43.721 44.7389 43.2889 43.6747 43.2382L23.5295 42.9822C23.4663 42.9813 23.4042 42.9651 23.3486 42.935C23.293 42.905 23.2455 42.8619 23.2101 42.8095C23.1748 42.7571 23.1526 42.6969 23.1455 42.6341C23.1384 42.5713 23.1466 42.5077 23.1694 42.4488C23.2036 42.35 23.2661 42.2635 23.3491 42.2C23.4321 42.1364 23.5319 42.0987 23.6362 42.0914L43.9761 41.8246C46.3766 41.7153 49.0011 39.7576 49.9159 37.3678L51.0735 34.3379C51.1063 34.2529 51.1226 34.1623 51.1215 34.0712C51.1201 34.0228 51.1147 33.9746 51.1055 33.9272C50.4739 31.1089 48.9387 28.5743 46.7336 26.7091C44.5285 24.844 41.7742 23.7506 38.8902 23.5953C36.0063 23.4401 33.1506 24.2316 30.758 25.8492C28.3654 27.4669 26.567 29.8221 25.6366 32.5562C24.6489 31.8221 23.4582 31.4116 22.2279 31.3812C20.9976 31.3507 19.7881 31.7018 18.7653 32.3862C17.7425 33.0706 16.9566 34.0548 16.5155 35.2036C16.0743 36.3525 15.9995 37.6097 16.3014 38.8027C15.1029 38.8337 13.9246 39.119 12.8447 39.6397C11.7647 40.1604 10.8077 40.9046 10.0371 41.823C9.26644 42.7414 8.69972 43.8131 8.37448 44.967C8.04924 46.121 7.9729 47.3309 8.15051 48.5166C8.16336 48.6101 8.20956 48.6959 8.28061 48.7582C8.35167 48.8204 8.4428 48.8549 8.53725 48.8553H45.7418C45.8474 48.8564 45.9505 48.8231 46.0356 48.7606C46.1207 48.6981 46.1833 48.6097 46.2139 48.5086Z" fill="white"/>
<path d="M52.9273 34.5679C52.7494 34.5679 52.5627 34.5732 52.3671 34.5839C52.3378 34.5847 52.3088 34.591 52.2818 34.6025C52.2331 34.6187 52.1891 34.6466 52.1537 34.6838C52.1184 34.7211 52.0927 34.7664 52.0791 34.8159L51.2789 37.5524C50.9375 38.7287 51.0629 39.8142 51.6363 40.6143C51.9261 40.993 52.2991 41.2998 52.7264 41.5112C53.1538 41.7226 53.624 41.8328 54.1008 41.8332L58.3976 42.1C58.4577 42.1018 58.5165 42.1177 58.5694 42.1464C58.6222 42.1752 58.6675 42.2159 58.7017 42.2653C58.738 42.3181 58.761 42.3789 58.7689 42.4425C58.7768 42.5061 58.7693 42.5706 58.747 42.6307C58.7128 42.7295 58.6503 42.816 58.5673 42.8795C58.4844 42.9431 58.3845 42.9808 58.2803 42.9881L53.8181 43.2548C51.3936 43.3669 48.7825 45.3219 47.8676 47.709L47.5449 48.5518C47.5314 48.5871 47.5264 48.6251 47.5304 48.6627C47.5343 48.7002 47.5471 48.7363 47.5676 48.768C47.5881 48.7997 47.6159 48.8262 47.6485 48.8451C47.6812 48.8641 47.7179 48.8751 47.7556 48.8772H63.1266C63.2203 48.8795 63.3119 48.8498 63.3866 48.7931C63.4612 48.7364 63.5143 48.656 63.5373 48.5652C63.9955 46.9277 64.0688 45.2064 63.7514 43.5359C63.434 41.8653 62.7345 40.2909 61.7077 38.9355C60.6809 37.5801 59.3544 36.4807 57.8322 35.723C56.3099 34.9653 54.633 34.57 52.9326 34.5679H52.9273Z" fill="white"/>
</g>
<defs>
<clipPath id="clip0_544_1328">
<rect width="55.8801" height="25.2688" fill="white" transform="translate(8.06006 23.5923)"/>
</clipPath>
</defs>
</svg>
