<svg width="72" height="73" viewBox="0 0 72 73" fill="none" xmlns="http://www.w3.org/2000/svg">
<rect y="0.226562" width="72" height="72" rx="8" fill="#3448C5"/>
<g clip-path="url(#clip0_544_1334)">
<path d="M53.4513 30.938C52.2506 27.1717 49.8899 23.8814 46.7067 21.5375C43.5235 19.1936 39.6807 17.916 35.7277 17.8875C32.3856 17.8685 29.1015 18.7605 26.2283 20.4678C23.3552 22.175 21.0015 24.6329 19.4203 27.5773C16.5139 28.0976 13.8495 29.532 11.8149 31.6716C9.78035 33.8112 8.48177 36.5443 8.10825 39.4731C7.73474 42.402 8.30579 45.3735 9.73826 47.9553C11.1707 50.5371 13.3899 52.5942 16.0726 53.8273L16.4226 53.9893H16.442V50.0454C14.6 48.915 13.1579 47.2366 12.3177 45.2454C11.4776 43.2542 11.2816 41.05 11.7572 38.9418C12.2328 36.8336 13.3562 34.927 14.9698 33.4894C16.5835 32.0517 18.6066 31.155 20.7555 30.925L21.7277 30.8245L22.1522 29.9366C23.3669 27.3686 25.29 25.2012 27.695 23.6895C30.1001 22.1778 32.8871 21.3847 35.7277 21.4037C39.1127 21.4269 42.3927 22.581 45.0463 24.6826C47.6999 26.7842 49.5747 29.7127 50.3726 33.0023L50.6967 34.3343L52.0675 34.3569C54.3121 34.4043 56.4493 35.3266 58.0234 36.9274C59.5975 38.5281 60.4838 40.6805 60.4935 42.9255C60.4935 46.2018 58.6041 48.8755 55.399 50.2333V53.9764L55.6291 53.8986C60.7981 52.2102 64.0097 48.0037 64.0097 42.9255C63.9958 39.9887 62.9187 37.1564 60.9776 34.9525C59.0365 32.7487 56.3628 31.3226 53.4513 30.938Z" fill="white"/>
<path d="M28.9223 53.5353L29.6936 54.3066C29.7159 54.3279 29.7313 54.3555 29.7376 54.3858C29.7439 54.416 29.7409 54.4474 29.729 54.4759C29.717 54.5043 29.6967 54.5285 29.6707 54.5452C29.6447 54.5618 29.6142 54.5702 29.5834 54.5691H23.5038C23.1405 54.5696 22.7806 54.4984 22.4449 54.3597C22.1091 54.2209 21.804 54.0174 21.547 53.7606C21.2899 53.5039 21.086 53.199 20.9469 52.8634C20.8078 52.5278 20.7362 52.1681 20.7362 51.8048V39.9696C20.7362 39.9292 20.7201 39.8905 20.6915 39.8619C20.663 39.8334 20.6242 39.8173 20.5838 39.8173H19.2649C19.2347 39.8168 19.2053 39.8075 19.1804 39.7905C19.1554 39.7736 19.1359 39.7498 19.1242 39.722C19.1125 39.6942 19.1092 39.6635 19.1146 39.6339C19.12 39.6042 19.1339 39.5767 19.1547 39.5548L24.3172 34.3955C24.3311 34.3807 24.3479 34.3689 24.3666 34.3609C24.3853 34.3528 24.4054 34.3486 24.4257 34.3486C24.4461 34.3486 24.4662 34.3528 24.4849 34.3609C24.5036 34.3689 24.5204 34.3807 24.5343 34.3955L29.6936 39.5548C29.7159 39.5761 29.7313 39.6037 29.7376 39.6339C29.7439 39.6641 29.7409 39.6956 29.729 39.724C29.717 39.7525 29.6967 39.7767 29.6707 39.7933C29.6447 39.81 29.6142 39.8183 29.5834 39.8173H28.2644C28.224 39.8173 28.1853 39.8334 28.1567 39.8619C28.1281 39.8905 28.1121 39.9292 28.1121 39.9696V51.5909C28.1149 52.3206 28.4062 53.0195 28.9223 53.5353Z" fill="white"/>
<path d="M40.3297 53.5358L41.101 54.3071C41.1234 54.3284 41.1387 54.3559 41.145 54.3862C41.1514 54.4164 41.1483 54.4478 41.1364 54.4763C41.1244 54.5047 41.1041 54.5289 41.0781 54.5456C41.0521 54.5622 41.0217 54.5706 40.9908 54.5696H34.8982C34.5349 54.57 34.1751 54.4988 33.8394 54.3601C33.5036 54.2213 33.1985 54.0178 32.9415 53.761C32.6844 53.5043 32.4805 53.1994 32.3414 52.8638C32.2023 52.5282 32.1306 52.1685 32.1306 51.8052V42.945C32.1311 42.9248 32.1275 42.9046 32.12 42.8857C32.1125 42.8669 32.1014 42.8497 32.0872 42.8352C32.073 42.8207 32.0561 42.8092 32.0374 42.8014C32.0187 42.7935 31.9986 42.7895 31.9783 42.7895H30.6853C30.6551 42.7889 30.6257 42.7796 30.6008 42.7627C30.5758 42.7458 30.5563 42.722 30.5446 42.6941C30.5329 42.6663 30.5296 42.6357 30.535 42.606C30.5404 42.5763 30.5543 42.5489 30.5751 42.527L35.7246 37.3677C35.7386 37.3529 35.7554 37.3411 35.7741 37.333C35.7927 37.325 35.8129 37.3208 35.8332 37.3208C35.8535 37.3208 35.8737 37.325 35.8923 37.333C35.911 37.3411 35.9278 37.3529 35.9418 37.3677L41.101 42.5172C41.1234 42.5385 41.1387 42.5661 41.145 42.5964C41.1514 42.6266 41.1483 42.658 41.1364 42.6865C41.1244 42.7149 41.1041 42.7391 41.0781 42.7558C41.0521 42.7724 41.0217 42.7808 40.9908 42.7797H39.6719C39.6516 42.7797 39.6315 42.7838 39.6128 42.7916C39.5941 42.7995 39.5772 42.811 39.563 42.8255C39.5488 42.84 39.5377 42.8572 39.5302 42.876C39.5227 42.8949 39.5191 42.915 39.5195 42.9353V51.5913C39.5224 52.321 39.8136 53.0199 40.3297 53.5358Z" fill="white"/>
<path d="M51.7503 53.5354L52.5216 54.3067C52.5437 54.3278 52.5589 54.3551 52.5654 54.385C52.5718 54.4149 52.569 54.446 52.5575 54.4743C52.5459 54.5026 52.5261 54.5268 52.5007 54.5437C52.4752 54.5607 52.4452 54.5695 52.4146 54.5692H46.3188C45.5853 54.5692 44.8819 54.278 44.3629 53.7597C43.844 53.2414 43.552 52.5383 43.5512 51.8048V45.9164C43.5512 45.876 43.5351 45.8372 43.5066 45.8087C43.478 45.7801 43.4393 45.7641 43.3989 45.7641H42.0799C42.0493 45.7644 42.0193 45.7556 41.9939 45.7387C41.9684 45.7217 41.9486 45.6976 41.937 45.6692C41.9255 45.6409 41.9228 45.6098 41.9292 45.5799C41.9356 45.55 41.9508 45.5227 41.9729 45.5016L47.1322 40.3391C47.1613 40.3108 47.2002 40.2949 47.2408 40.2949C47.2813 40.2949 47.3203 40.3108 47.3493 40.3391L52.5086 45.5016C52.5287 45.5232 52.5421 45.5502 52.5471 45.5793C52.5522 45.6084 52.5486 45.6384 52.537 45.6655C52.5253 45.6926 52.506 45.7158 52.4814 45.7321C52.4568 45.7485 52.428 45.7573 52.3984 45.7576H51.0762C51.0358 45.7576 50.9971 45.7736 50.9685 45.8022C50.9399 45.8308 50.9239 45.8695 50.9239 45.9099V51.5909C50.931 52.3229 51.2282 53.0222 51.7503 53.5354Z" fill="white"/>
</g>
<defs>
<clipPath id="clip0_544_1334">
<rect width="56.0001" height="36.6787" fill="white" transform="translate(8 17.8872)"/>
</clipPath>
</defs>
</svg>
