<svg width="72" height="73" viewBox="0 0 72 73" fill="none" xmlns="http://www.w3.org/2000/svg">
<rect y="0.226562" width="72" height="72" rx="8" fill="#0000EE"/>
<path d="M63.6458 41.7422C63.6458 41.7097 63.6458 41.7097 63.6458 41.7422C63.5809 41.515 63.5484 41.3528 63.4835 41.1581C63.4835 41.1257 63.4511 41.0932 63.4511 41.0284C63.4186 40.931 63.3862 40.8012 63.3213 40.7039C63.2889 40.6066 63.2564 40.5092 63.1915 40.4119C63.1915 40.3795 63.1591 40.3795 63.1591 40.347C62.932 39.8279 62.7049 39.3737 62.4128 38.9843C61.5368 37.6216 60.2715 36.4536 58.6167 35.6425C58.195 35.4478 57.7732 35.2531 57.2865 35.0909C57.254 34.5393 57.2216 34.0202 57.1242 33.5011C56.9296 32.2681 56.6376 31.5219 56.6376 31.5219C56.378 30.6783 55.9887 29.9321 55.5993 29.2507C55.5669 29.1859 55.502 29.0885 55.4695 29.0236C55.4695 28.9912 55.4371 28.9912 55.4371 28.9587C54.8206 27.9854 54.0744 27.1094 53.2308 26.3631C52.7117 25.9089 52.3548 25.6493 52.3548 25.6493C49.4023 23.4755 45.5413 22.6319 41.6803 23.7351C41.5829 23.5728 38.1113 17.7651 30.4542 17.7651C26.3661 17.7651 22.278 19.8092 20.1041 22.5021C20.0717 22.5346 20.0392 22.567 20.0068 22.5995L19.9743 22.6319C18.2547 24.7084 17.1192 27.4014 16.9894 30.6134V30.6459C16.7623 30.6134 16.2431 30.7432 16.2431 30.7432C8.4238 33.2091 6.44463 41.3853 9.1376 47.5174C9.17004 47.5498 9.17004 47.5823 9.20249 47.6472C9.23493 47.7121 9.26738 47.777 9.26738 47.8094C10.2732 49.9508 11.7981 51.6704 13.6475 52.8384C13.6799 52.8384 13.6799 52.8709 13.7124 52.8709C13.8422 52.9357 13.9395 53.0006 14.0693 53.098C14.1342 53.1304 14.1666 53.1629 14.2315 53.1953C14.3289 53.2602 14.4262 53.2926 14.5235 53.3575C14.5884 53.39 14.6533 53.4224 14.7182 53.4549C14.8155 53.5198 14.9129 53.5522 15.0102 53.5847C15.0751 53.6171 15.1075 53.6495 15.1724 53.6495C16.7298 54.3309 18.417 54.6878 20.2015 54.6878C20.2664 54.6878 20.3312 54.6878 20.3961 54.6878H32.2387C33.5365 54.6878 34.4125 54.6878 34.4774 54.6878C34.4774 54.6878 47.3907 54.6878 52.3872 54.6878H52.4197H53.7499H53.7824C53.8473 54.6878 53.9122 54.6878 53.9771 54.6878H54.0095C54.0095 54.6878 54.0095 54.6878 54.0419 54.6878C54.0744 54.6878 54.1068 54.6878 54.1393 54.6878C56.6376 54.6553 58.6816 53.8767 60.239 52.5789C60.2715 52.5464 60.3039 52.5464 60.3363 52.514C60.3688 52.4815 60.4337 52.4491 60.4661 52.3842C60.4986 52.3517 60.4986 52.3517 60.531 52.3193C60.6608 52.1895 60.823 52.0597 60.9528 51.93C61.0177 51.8651 61.0826 51.8002 61.1475 51.7353C61.2124 51.6704 61.2773 51.6055 61.3421 51.5406C61.407 51.4757 61.4719 51.4108 61.5044 51.3459C61.6017 51.2162 61.699 51.1188 61.7964 50.989C61.8613 50.9241 61.8937 50.8593 61.9586 50.7944C62.0235 50.697 62.0884 50.5997 62.1533 50.5024C62.1857 50.4699 62.2182 50.405 62.2506 50.3726C62.348 50.2104 62.4777 50.0157 62.5751 49.8535C62.6075 49.7886 62.64 49.7561 62.6724 49.6912C62.7373 49.5614 62.8346 49.3992 62.8995 49.2694C62.9644 49.1721 62.9969 49.0423 63.0618 48.945C63.0942 48.8801 63.1266 48.7828 63.1591 48.7179C63.2564 48.5232 63.3213 48.3285 63.3862 48.1014V48.069V48.0365C64.1 45.9925 64.1973 43.7862 63.6458 41.7422ZM26.1714 43.4942H23.2513C23.2513 43.4942 22.8295 43.4942 22.1806 43.4942C20.7855 43.4942 18.3521 43.4942 16.6974 43.4942C16.8596 43.332 17.0867 43.0724 17.3463 42.8453L31.2978 28.8938L33.8285 31.4246C33.8285 31.4246 34.2503 31.8464 34.9965 32.5926L35.5805 33.1766C36.6837 34.2798 38.2411 35.8371 39.9931 37.5892L44.3408 33.2415L48.3965 37.2972L51.057 39.9577L54.5935 43.4942H26.1714Z" fill="white"/>
</svg>
