<svg xmlns="http://www.w3.org/2000/svg" xml:space="preserve" id="Layer_1" x="0" y="0" style="enable-background:new 91-46 202 102" version="1.1" viewBox="91 -46 202 102"><style>.st0{fill:#4d4d4d}</style><path d="M92 48.2c.8-2.3 1.7-4.6 2.5-6.9.2-.4.3-.9.5-1.4 3.5 2.2 7.1 3.7 11 4.6 6.1 1.5 12.2 1.9 18.2.1 6.1-1.8 10.6-5.6 11.9-12.1 1.4-6.7.1-12.7-5.1-17.6-3.8-3.5-8.3-5.6-13-7.4-4.9-1.9-9.7-4.2-13.9-7.5-7.4-5.8-11.1-13.2-9.9-22.7 1.3-10 7.2-16.4 16.4-19.9 7.2-2.7 15.6-3.3 23-1.3 3 .8 6 1.9 9 3 .8.3 1 .7.7 1.6-1 2.5-1.8 5-2.8 7.6-3.1-1.8-6.3-3-9.7-3.6-5.3-1-10.6-1.2-15.8.6-12.4 4.3-12.8 18.7-5.7 25.4 3.6 3.4 8 5.6 12.5 7.6 4.9 2.1 9.8 4.3 14.2 7.4 5.6 4 9.7 9.1 10.9 16 2.8 14.9-4.8 27.2-19.5 31.2-11 3-21.8 1.9-32.2-2.6-1.1-.5-2.2-1.2-3.3-1.8.1-.1.1-.2.1-.3zM255.8 55c-1.2-3.3-2.3-6.6-3.5-9.9-7.2-19.9-14.4-39.7-21.6-59.6-.1-.3-.2-.7-.4-1.2.5 0 .8-.1 1.2-.1h8.8c.9 0 1.3.3 1.6 1.2 5.9 17.5 11.8 35.1 17.8 52.6 1.8 5.3 3.6 10.6 5.4 16 .1.4.3.7.5 1.1-3.3-.1-6.5-.1-9.8-.1zM188.7 52.9v-68.8h8.8l.6 13.2c.1 0 .3 0 .4.1.2-.5.4-.9.6-1.4 2.6-5.9 6.6-10.4 12.8-12.6 2.6-.9 5.2-1.2 7.9-.6.3.1.8.4.8.7.1 3 0 6.1 0 9.2h-1.8c-6.5-.6-11.6 1.9-15.1 7.3-3.3 5-4.3 10.8-4.3 16.7V53c-3.5-.1-7-.1-10.7-.1zM172.6 53h-10.4v-68.8h10.4V53z" class="st0"/><path d="M271.2 37.9c-1.3-4-2.7-8-4-12-.1-.4 0-1 .1-1.4 4.5-13.1 9-26.1 13.5-39.1.1-.4.7-.9 1-1 3.3-.1 6.6 0 10.1 0-6.9 18-13.7 35.7-20.5 53.5 0-.1-.1 0-.2 0z" style="fill:#347cba"/><path d="M174.3-35.4c0 4.3-2.8 7.1-6.9 7.1-3.9 0-6.9-3.1-6.9-7.2 0-4 3.1-7.1 7.1-7 4 .1 6.7 3 6.7 7.1z" class="st0"/></svg>